<svg viewBox="0 0 24 24" xmlns="http://www.w3.org/2000/svg" xmlns:xlink="http://www.w3.org/1999/xlink" width="24.000000" height="24.000000" fill="none">
	<rect id="calendar" width="24.000000" height="24.000000" x="0.000000" y="0.000000" fill="rgb(255,255,255)" fill-opacity="0" />
	<g id="Layer 2">
		<g id="calendar">
			<path id="Vector" d="M24 0L0 0L0 24L24 24L24 0Z" opacity="0" fill="rgb(0,0,0)" fill-rule="evenodd" />
			<path id="Vector" d="M18 4L17 4L17 3C17 2.73478 16.8946 2.48043 16.7071 2.29289C16.5196 2.10536 16.2652 2 16 2C15.7348 2 15.4804 2.10536 15.2929 2.29289C15.1054 2.48043 15 2.73478 15 3L15 4L9 4L9 3C9 2.73478 8.89464 2.48043 8.70711 2.29289C8.51957 2.10536 8.26522 2 8 2C7.73478 2 7.48043 2.10536 7.29289 2.29289C7.10536 2.48043 7 2.73478 7 3L7 4L6 4C5.20435 4 4.44129 4.31607 3.87868 4.87868C3.31607 5.44129 3 6.20435 3 7L3 19C3 19.7956 3.31607 20.5587 3.87868 21.1213C4.44129 21.6839 5.20435 22 6 22L18 22C18.7957 22 19.5587 21.6839 20.1213 21.1213C20.6839 20.5587 21 19.7956 21 19L21 7C21 6.20435 20.6839 5.44129 20.1213 4.87868C19.5587 4.31607 18.7957 4 18 4ZM8 17C7.80222 17 7.60888 16.9414 7.44443 16.8315C7.27998 16.7216 7.15181 16.5654 7.07612 16.3827C7.00043 16.2 6.98063 15.9989 7.01921 15.8049C7.0578 15.6109 7.15304 15.4327 7.29289 15.2929C7.43275 15.153 7.61093 15.0578 7.80491 15.0192C7.99889 14.9806 8.19996 15.0004 8.38268 15.0761C8.56541 15.1518 8.72159 15.28 8.83147 15.4444C8.94135 15.6089 9 15.8022 9 16C9 16.2652 8.89464 16.5196 8.70711 16.7071C8.51957 16.8946 8.26522 17 8 17ZM16 17L12 17C11.7348 17 11.4804 16.8946 11.2929 16.7071C11.1054 16.5196 11 16.2652 11 16C11 15.7348 11.1054 15.4804 11.2929 15.2929C11.4804 15.1054 11.7348 15 12 15L16 15C16.2652 15 16.5196 15.1054 16.7071 15.2929C16.8946 15.4804 17 15.7348 17 16C17 16.2652 16.8946 16.5196 16.7071 16.7071C16.5196 16.8946 16.2652 17 16 17ZM19 11L5 11L5 7C5 6.73478 5.10536 6.48043 5.29289 6.29289C5.48043 6.10536 5.73478 6 6 6L7 6L7 7C7 7.26522 7.10536 7.51957 7.29289 7.70711C7.48043 7.89464 7.73478 8 8 8C8.26522 8 8.51957 7.89464 8.70711 7.70711C8.89464 7.51957 9 7.26522 9 7L9 6L15 6L15 7C15 7.26522 15.1054 7.51957 15.2929 7.70711C15.4804 7.89464 15.7348 8 16 8C16.2652 8 16.5196 7.89464 16.7071 7.70711C16.8946 7.51957 17 7.26522 17 7L17 6L18 6C18.2652 6 18.5196 6.10536 18.7071 6.29289C18.8946 6.48043 19 6.73478 19 7L19 11Z" fill="rgb(0,0,0)" fill-rule="nonzero" />
		</g>
	</g>
</svg>
