<svg viewBox="0 0 96 96" xmlns="http://www.w3.org/2000/svg" xmlns:xlink="http://www.w3.org/1999/xlink" width="96.000000" height="96.000000" fill="none" customFrame="#000000">
	<g id="Group 281">
		<path id="Vector" d="M48 96C74.5097 96 96 74.5097 96 48C96 21.4903 74.5097 0 48 0C21.4903 0 0 21.4903 0 48C0 74.5097 21.4903 96 48 96Z" fill="rgb(140,97,255)" fill-opacity="0.0500000007" fill-rule="evenodd" />
		<path id="Vector" d="M96 48C96 74.5097 74.5097 96 48 96C21.4903 96 0 74.5097 0 48C0 21.4903 21.4903 0 48 0C74.5097 0 96 21.4903 96 48ZM54.8948 94.4983C52.6212 94.8328 50.3229 95 48 95C45.6771 95 43.3788 94.8328 41.1052 94.4983C40.2422 94.3713 39.3827 94.2203 38.5268 94.0451C36.9996 93.7326 35.4955 93.3459 34.0144 92.8849C32.5558 92.4309 31.1196 91.9049 29.7058 91.3069C28.5206 90.8056 27.36 90.2575 26.2239 89.6626C24.6781 88.853 23.1776 87.9567 21.7225 86.9737C20.5731 86.1972 19.4621 85.3734 18.3895 84.5023C17.1286 83.4782 15.9207 82.3888 14.766 81.234C13.6112 80.0792 12.5217 78.8713 11.4976 77.6103C10.6265 76.5378 9.80277 75.4268 9.02627 74.2775C8.04433 72.824 7.14892 71.3252 6.34004 69.7811C5.74408 68.6434 5.1951 67.4811 4.69308 66.2942C4.09566 64.8818 3.5701 63.4469 3.1164 61.9897C2.65487 60.5074 2.2677 59.0019 1.9549 57.4732C1.77926 56.6149 1.62785 55.753 1.50068 54.8876C1.1669 52.6163 1.00001 50.3204 1.00001 48C1 45.6791 1.16696 43.3828 1.50088 41.111C1.62801 40.246 1.77935 39.3846 1.95489 38.5268C2.26761 36.9985 2.65466 35.4934 3.11604 34.0114C3.56982 32.5538 4.0955 31.1186 4.69308 29.7058C5.19483 28.5195 5.74351 27.3578 6.33911 26.2207C7.14823 24.676 8.04395 23.1766 9.02627 21.7225C9.80218 20.5741 10.6253 19.4639 11.4957 18.3921C12.5203 17.1302 13.6104 15.9215 14.766 14.766C15.9213 13.6107 17.1297 12.5208 18.3913 11.4963C19.4634 10.6257 20.5738 9.80237 21.7225 9.02627C23.1765 8.04402 24.6757 7.14836 26.2204 6.33929C27.3576 5.74362 28.5194 5.19488 29.7058 4.69308C31.1181 4.09574 32.5527 3.57024 34.0097 3.11658C35.4923 2.65497 36.9979 2.26775 38.5268 1.9549C39.3846 1.77937 40.2459 1.62804 41.1108 1.50091C43.3826 1.16698 45.6791 1.00001 48 1.00001C50.3209 1 52.6172 1.16696 54.889 1.50088C55.754 1.62801 56.6154 1.77935 57.4732 1.95489C59.0013 2.26759 60.5064 2.65461 61.9882 3.11593C63.4459 3.56974 64.8813 4.09546 66.2942 4.69308C67.4815 5.19528 68.6442 5.74448 69.7823 6.34069C71.326 7.14939 72.8244 8.04459 74.2775 9.02627C75.4269 9.80281 76.5379 10.6266 77.6105 11.4978C78.8714 12.5218 80.0793 13.6112 81.234 14.766C82.3882 15.9202 83.4772 17.1275 84.5008 18.3877C85.3725 19.4609 86.1968 20.5725 86.9737 21.7225C87.957 23.178 88.8536 24.6789 89.6633 26.2253C90.258 27.361 90.8058 28.5211 91.3069 29.7058C91.9048 31.1194 92.4307 32.5553 92.8847 34.0137C93.3457 35.495 93.7325 36.9993 94.0451 38.5268C94.2203 39.3831 94.3715 40.243 94.4985 41.1064C94.8328 43.3797 95 45.6776 95 48C95 50.3229 94.8328 52.6212 94.4983 54.8948C94.3713 55.7578 94.2203 56.6173 94.0451 57.4732C93.7325 59.0011 93.3455 60.5059 92.8843 61.9875C92.4304 63.4455 91.9046 64.881 91.3069 66.2942C90.8057 67.4793 90.2576 68.6398 89.6627 69.7758C88.8531 71.3218 87.9568 72.8223 86.9737 74.2775C86.1965 75.4279 85.3719 76.5399 84.4999 77.6134C83.4765 78.8733 82.3879 80.0801 81.234 81.234C80.0801 82.3879 78.8733 83.4765 77.6134 84.4999C76.5399 85.3719 75.4279 86.1965 74.2775 86.9737C72.8219 87.9571 71.3209 88.8536 69.7745 89.6634C68.6389 90.258 67.4788 90.8059 66.2942 91.3069C64.8802 91.905 63.4438 92.431 61.985 92.8851C60.5042 93.3459 59.0002 93.7326 57.4732 94.0451C56.6173 94.2203 55.7578 94.3713 54.8948 94.4983Z" fill="rgb(190.04,165.75,255)" fill-rule="evenodd" />
		<path id="Vector" d="M77.8886 54.4543C77.7188 54.4521 77.5565 54.3836 77.4365 54.2635C77.3164 54.1435 77.2479 53.9812 77.2457 53.8114L77.2457 44.5714C77.2457 44.4009 77.3135 44.2374 77.434 44.1169C77.5546 43.9963 77.7181 43.9286 77.8886 43.9286C78.0591 43.9286 78.2226 43.9963 78.3432 44.1169C78.4637 44.2374 78.5314 44.4009 78.5314 44.5714L78.5314 53.82C78.5292 53.989 78.4605 54.1503 78.3402 54.269C78.2199 54.3877 78.0576 54.4543 77.8886 54.4543Z" fill="rgb(190.04,165.75,255)" fill-rule="nonzero" />
		<path id="Vector" d="M77.8886 41.7772C77.7181 41.7772 77.5546 41.7094 77.434 41.5889C77.3135 41.4683 77.2457 41.3048 77.2457 41.1343L77.2457 39.24C77.2457 39.0695 77.3135 38.906 77.434 38.7855C77.5546 38.6649 77.7181 38.5972 77.8886 38.5972C78.0591 38.5972 78.2226 38.6649 78.3432 38.7855C78.4637 38.906 78.5314 39.0695 78.5314 39.24L78.5314 41.1429C78.5314 41.2269 78.5148 41.3101 78.4824 41.3876C78.45 41.4651 78.4024 41.5354 78.3426 41.5944C78.2828 41.6535 78.2119 41.7 78.1339 41.7314C78.056 41.7627 77.9726 41.7783 77.8886 41.7772Z" fill="rgb(190.04,165.75,255)" fill-rule="nonzero" />
		<path id="path918" d="M4.22625 0L0.667303 0C0.298952 0 0 0.298952 0 0.667302C0 1.03565 0.298952 1.3346 0.667303 1.3346L4.22625 1.3346C4.5946 1.3346 4.89355 1.03565 4.89355 0.667302C4.89355 0.298952 4.5946 0 4.22625 0Z" fill="rgb(190.04,165.75,255)" fill-rule="nonzero" transform="matrix(1,0,0,-1,21.5601,32.5028)" />
		<path id="path920" d="M0.667302 0C0.298952 0 0 0.298952 0 0.667303L0 4.22625C0 4.5946 0.298952 4.89355 0.667302 4.89355C1.03565 4.89355 1.3346 4.5946 1.3346 4.22625L1.3346 0.667303C1.3346 0.298952 1.03565 0 0.667302 0Z" fill="rgb(190.04,165.75,255)" fill-rule="nonzero" transform="matrix(1,0,0,-1,23.34,34.2824)" />
		<path id="path938" d="M1.71429 0.857143C1.71429 0.384 1.33029 0 0.857143 0C0.384 0 0 0.384 0 0.857143C0 1.33029 0.384 1.71429 0.857143 1.71429C1.33029 1.71429 1.71429 1.33029 1.71429 0.857143Z" fill="rgb(190.04,165.75,255)" fill-rule="nonzero" transform="matrix(-4.37114e-08,-1,-1,4.37114e-08,37.7144,75.4286)" />
		<path id="path940" d="M1.71429 0.857143C1.71429 0.384 1.33029 0 0.857143 0C0.384 0 0 0.384 0 0.857143C0 1.33029 0.384 1.71429 0.857143 1.71429C1.33029 1.71429 1.71429 1.33029 1.71429 0.857143Z" fill="rgb(190.04,165.75,255)" fill-rule="nonzero" transform="matrix(-4.37114e-08,-1,-1,4.37114e-08,32.5714,75.4286)" />
		<path id="path942" d="M1.71429 0.857143C1.71429 0.384 1.33029 0 0.857143 0C0.384 0 0 0.384 0 0.857143C0 1.33029 0.384 1.71429 0.857143 1.71429C1.33029 1.71429 1.71429 1.33029 1.71429 0.857143Z" fill="rgb(190.04,165.75,255)" fill-rule="nonzero" transform="matrix(-4.37114e-08,-1,-1,4.37114e-08,27.4286,75.4286)" />
		<g id="Group 278">
			<path id="Vector" d="M47.8645 23.2418L23.7649 43.0406L47.8645 62.8486L71.9641 43.0406L47.8645 23.2418Z" fill="rgb(51,51,51)" fill-rule="nonzero" />
			<path id="Vector" d="M47.8647 63.5436C47.7069 63.5303 47.5591 63.4613 47.4475 63.349L23.3479 43.541C23.2692 43.4753 23.2059 43.3931 23.1626 43.3002C23.1193 43.2072 23.0972 43.1059 23.0977 43.0033C23.099 42.9011 23.122 42.8004 23.1651 42.7077C23.2083 42.615 23.2706 42.5326 23.3479 42.4657L47.4475 22.667C47.575 22.553 47.74 22.4899 47.911 22.4899C48.082 22.4899 48.247 22.553 48.3745 22.667L72.4741 42.4657C72.5514 42.5326 72.6137 42.615 72.6569 42.7077C72.7 42.8004 72.723 42.9011 72.7243 43.0033C72.7249 43.1059 72.7027 43.2072 72.6594 43.3002C72.6161 43.3931 72.5528 43.4753 72.4741 43.541L48.3745 63.349C48.308 63.4155 48.2282 63.4673 48.1404 63.5008C48.0525 63.5343 47.9585 63.5489 47.8647 63.5436ZM24.8588 43.0404L47.8647 61.9493L70.8705 43.0404L47.8647 24.1408L24.8588 43.0404Z" fill="rgb(190.04,165.75,255)" fill-rule="nonzero" />
			<path id="Vector" d="M65.0126 28.8032L30.717 28.8032L30.717 69.5872L65.0126 69.5872L65.0126 28.8032Z" fill="rgb(51,51,51)" fill-rule="evenodd" />
			<path id="Vector" d="M55.4098 40.853L43.6937 50.4836L43.6937 69.5872L65.0126 69.5872L65.0126 40.853L55.4098 40.853Z" fill="rgb(51,51,51)" fill-rule="nonzero" />
			<path id="Vector" d="M65.0588 70.2823L30.7632 70.2823C30.5795 70.2799 30.4041 70.2059 30.2743 70.076C30.1444 69.9461 30.0704 69.7707 30.068 69.5871L30.068 28.8031C30.0728 28.622 30.1482 28.4499 30.2781 28.3235C30.4079 28.1971 30.582 28.1264 30.7632 28.1265L65.0588 28.1265C65.2431 28.1265 65.42 28.1997 65.5504 28.3301C65.6807 28.4604 65.754 28.6373 65.754 28.8216L65.754 69.6056C65.7468 69.786 65.6708 69.9568 65.5414 70.0827C65.412 70.2086 65.2393 70.28 65.0588 70.2823ZM31.412 68.9104L64.3172 68.9104L64.3172 29.5168L31.412 29.5168L31.412 68.9104Z" fill="rgb(190.04,165.75,255)" fill-rule="nonzero" />
			<path id="Vector" d="M58.9875 35.0598L48.1705 35.0598C47.9861 35.0598 47.8093 34.9865 47.679 34.8562C47.5486 34.7258 47.4753 34.549 47.4753 34.3646C47.4753 34.1802 47.5486 34.0034 47.679 33.873C47.8093 33.7427 47.9861 33.6694 48.1705 33.6694L58.9875 33.6694C59.1719 33.6694 59.3487 33.7427 59.4791 33.873C59.6095 34.0034 59.6827 34.1802 59.6827 34.3646C59.6827 34.549 59.6095 34.7258 59.4791 34.8562C59.3487 34.9865 59.1719 35.0598 58.9875 35.0598Z" fill="rgb(190.04,165.75,255)" fill-rule="nonzero" />
			<path id="Vector" d="M44.4628 35.0598L36.7417 35.0598C36.5573 35.0598 36.3805 34.9865 36.2501 34.8562C36.1197 34.7258 36.0465 34.549 36.0465 34.3646C36.0465 34.1802 36.1197 34.0034 36.2501 33.873C36.3805 33.7427 36.5573 33.6694 36.7417 33.6694L44.4628 33.6694C44.6472 33.6694 44.824 33.7427 44.9544 33.873C45.0848 34.0034 45.158 34.1802 45.158 34.3646C45.158 34.549 45.0848 34.7258 44.9544 34.8562C44.824 34.9865 44.6472 35.0598 44.4628 35.0598Z" fill="rgb(190.04,165.75,255)" fill-rule="nonzero" />
			<path id="Vector" d="M58.9874 39.6943L51.878 39.6943C51.6937 39.6943 51.5168 39.6211 51.3865 39.4907C51.2561 39.3603 51.1829 39.1835 51.1829 38.9992C51.1829 38.8148 51.2561 38.638 51.3865 38.5076C51.5168 38.3772 51.6937 38.304 51.878 38.304L58.9874 38.304C59.1718 38.304 59.3486 38.3772 59.479 38.5076C59.6094 38.638 59.6826 38.8148 59.6826 38.9992C59.6826 39.1835 59.6094 39.3603 59.479 39.4907C59.3486 39.6211 59.1718 39.6943 58.9874 39.6943Z" fill="rgb(190.04,165.75,255)" fill-rule="nonzero" />
			<path id="Vector" d="M48.1705 39.6943L36.7417 39.6943C36.5573 39.6943 36.3805 39.6211 36.2501 39.4907C36.1197 39.3603 36.0465 39.1835 36.0465 38.9992C36.0465 38.8148 36.1197 38.638 36.2501 38.5076C36.3805 38.3772 36.5573 38.304 36.7417 38.304L48.1705 38.304C48.3548 38.304 48.5317 38.3772 48.662 38.5076C48.7924 38.638 48.8657 38.8148 48.8657 38.9992C48.8657 39.1835 48.7924 39.3603 48.662 39.4907C48.5317 39.6211 48.3548 39.6943 48.1705 39.6943Z" fill="rgb(190.04,165.75,255)" fill-rule="nonzero" />
			<path id="Vector" d="M58.9876 44.3289L46.3168 44.3289C46.1324 44.3289 45.9556 44.2556 45.8252 44.1253C45.6948 43.9949 45.6216 43.8181 45.6216 43.6337C45.6216 43.4493 45.6948 43.2725 45.8252 43.1421C45.9556 43.0118 46.1324 42.9385 46.3168 42.9385L58.9876 42.9385C59.172 42.9385 59.3488 43.0118 59.4792 43.1421C59.6095 43.2725 59.6828 43.4493 59.6828 43.6337C59.6828 43.8181 59.6095 43.9949 59.4792 44.1253C59.3488 44.2556 59.172 44.3289 58.9876 44.3289Z" fill="rgb(190.04,165.75,255)" fill-rule="nonzero" />
			<path id="Vector" d="M42.609 44.3289L36.7417 44.3289C36.5573 44.3289 36.3805 44.2556 36.2501 44.1253C36.1197 43.9949 36.0465 43.8181 36.0465 43.6337C36.0465 43.4493 36.1197 43.2725 36.2501 43.1421C36.3805 43.0118 36.5573 42.9385 36.7417 42.9385L42.609 42.9385C42.7934 42.9385 42.9702 43.0118 43.1006 43.1421C43.231 43.2725 43.3042 43.4493 43.3042 43.6337C43.3042 43.8181 43.231 43.9949 43.1006 44.1253C42.9702 44.2556 42.7934 44.3289 42.609 44.3289Z" fill="rgb(190.04,165.75,255)" fill-rule="nonzero" />
			<path id="Vector" d="M58.9875 48.9635L52.805 48.9635C52.6207 48.9635 52.4438 48.8902 52.3135 48.7598C52.1831 48.6295 52.1099 48.4527 52.1099 48.2683C52.1099 48.0839 52.1831 47.9071 52.3135 47.7767C52.4438 47.6463 52.6207 47.5731 52.805 47.5731L58.9875 47.5731C59.1719 47.5731 59.3487 47.6463 59.4791 47.7767C59.6095 47.9071 59.6827 48.0839 59.6827 48.2683C59.6827 48.4527 59.6095 48.6295 59.4791 48.7598C59.3487 48.8902 59.1719 48.9635 58.9875 48.9635Z" fill="rgb(190.04,165.75,255)" fill-rule="nonzero" />
			<path id="Vector" d="M49.0974 48.9635L36.7417 48.9635C36.5573 48.9635 36.3805 48.8902 36.2501 48.7598C36.1197 48.6295 36.0465 48.4527 36.0465 48.2683C36.0465 48.0839 36.1197 47.9071 36.2501 47.7767C36.3805 47.6463 36.5573 47.5731 36.7417 47.5731L49.0974 47.5731C49.2818 47.5731 49.4586 47.6463 49.589 47.7767C49.7193 47.9071 49.7926 48.0839 49.7926 48.2683C49.7926 48.4527 49.7193 48.6295 49.589 48.7598C49.4586 48.8902 49.2818 48.9635 49.0974 48.9635Z" fill="rgb(190.04,165.75,255)" fill-rule="nonzero" />
			<path id="Vector" d="M54.0472 53.598L41.6822 53.598C41.4979 53.598 41.321 53.5247 41.1907 53.3944C41.0603 53.264 40.9871 53.0872 40.9871 52.9028C40.9871 52.7184 41.0603 52.5416 41.1907 52.4113C41.321 52.2809 41.4979 52.2076 41.6822 52.2076L54.0472 52.2076C54.2316 52.2076 54.4084 52.2809 54.5388 52.4113C54.6691 52.5416 54.7424 52.7184 54.7424 52.9028C54.7424 53.0872 54.6691 53.264 54.5388 53.3944C54.4084 53.5247 54.2316 53.598 54.0472 53.598Z" fill="rgb(190.04,165.75,255)" fill-rule="nonzero" />
			<path id="Vector" d="M23.7649 43.0405L23.7649 69.5871L39.9116 56.3138L23.7649 43.0405Z" fill="rgb(51,51,51)" fill-rule="nonzero" />
			<path id="Vector" d="M55.8176 56.3138L71.9644 69.5871L71.9644 43.0405L55.8176 56.3138Z" fill="rgb(51,51,51)" fill-rule="nonzero" />
			<path id="Vector" d="M47.8645 62.8485L39.9116 56.3138L23.7649 69.5872L71.9641 69.5872L55.8174 56.3138L47.8645 62.8485Z" fill="rgb(51,51,51)" fill-rule="nonzero" />
			<path id="Vector" d="M28.3998 50.4927L28.3998 65.7775L37.6967 58.1397L28.3998 50.4927Z" fill="rgb(51,51,51)" fill-rule="nonzero" />
			<path id="Vector" d="M63.1958 57.8802L71.9643 65.0916L71.9643 50.6781L63.1958 57.8802Z" fill="rgb(51,51,51)" fill-rule="nonzero" />
			<path id="Vector" d="M23.7652 70.2823C23.662 70.2808 23.5604 70.2554 23.4686 70.2081C23.3499 70.1533 23.2493 70.0658 23.1787 69.9558C23.1081 69.8457 23.0704 69.7178 23.0701 69.5871L23.0701 43.0404C23.0704 42.9097 23.1081 42.7818 23.1787 42.6718C23.2493 42.5617 23.3499 42.4742 23.4686 42.4194C23.5874 42.3614 23.7202 42.3384 23.8516 42.3532C23.9829 42.368 24.1073 42.4199 24.2102 42.5028L40.3569 55.7761C40.435 55.8423 40.4978 55.9246 40.5408 56.0175C40.5838 56.1103 40.6061 56.2114 40.6061 56.3138C40.6061 56.4161 40.5838 56.5172 40.5408 56.61C40.4978 56.7029 40.435 56.7852 40.3569 56.8514L24.2102 70.1154C24.0865 70.2223 23.9287 70.2814 23.7652 70.2823ZM24.4604 44.5142L24.4604 68.1133L38.8182 56.3138L24.4604 44.5142Z" fill="rgb(190.04,165.75,255)" fill-rule="nonzero" />
			<path id="Vector" d="M60.4244 60.0954L50.2747 68.4376L43.1931 62.6166L34.7212 69.587L71.9644 69.587L60.4244 60.0954Z" fill="rgb(51,51,51)" fill-rule="nonzero" />
			<path id="Vector" d="M71.9644 70.2823C71.801 70.2814 71.6432 70.2223 71.5195 70.1154L55.3728 56.8606C55.2947 56.7945 55.2319 56.7122 55.1889 56.6193C55.1458 56.5265 55.1235 56.4254 55.1235 56.323C55.1235 56.2207 55.1458 56.1196 55.1889 56.0267C55.2319 55.9339 55.2947 55.8515 55.3728 55.7854L71.5473 42.5028C71.6502 42.4199 71.7746 42.368 71.9059 42.3532C72.0373 42.3384 72.1701 42.3614 72.2888 42.4194C72.4075 42.4742 72.5081 42.5617 72.5788 42.6718C72.6494 42.7818 72.6871 42.9097 72.6874 43.0404L72.6874 69.5871C72.6871 69.7178 72.6494 69.8457 72.5788 69.9558C72.5081 70.0658 72.4075 70.1533 72.2888 70.2081C72.1887 70.2598 72.0771 70.2853 71.9644 70.2823ZM56.9114 56.3138L71.2692 68.1133L71.2692 44.5142L56.9114 56.3138Z" fill="rgb(190.04,165.75,255)" fill-rule="nonzero" />
			<path id="Vector" d="M71.9642 70.2823L23.7649 70.2823C23.621 70.2816 23.4808 70.2367 23.3632 70.1539C23.2455 70.071 23.1561 69.9541 23.1069 69.8189C23.0604 69.6841 23.0559 69.5384 23.0939 69.4011C23.132 69.2637 23.2108 69.1411 23.32 69.0495L39.4668 55.7762C39.5942 55.6622 39.7592 55.5992 39.9302 55.5992C40.1012 55.5992 40.2662 55.6622 40.3937 55.7762L47.9017 61.9494L55.4096 55.7762C55.5371 55.6622 55.7021 55.5992 55.8731 55.5992C56.0441 55.5992 56.2091 55.6622 56.3365 55.7762L72.4833 69.0495C72.5925 69.1411 72.6713 69.2637 72.7094 69.4011C72.7474 69.5384 72.7429 69.6841 72.6965 69.8189C72.6435 69.9667 72.5427 70.0926 72.41 70.1765C72.2774 70.2605 72.1204 70.2977 71.9642 70.2823ZM25.7022 68.9105L70.0269 68.9105L55.7896 57.2129L48.2817 63.3861C48.1542 63.5001 47.9892 63.5632 47.8182 63.5632C47.6472 63.5632 47.4822 63.5001 47.3548 63.3861L39.8468 57.2129L25.7022 68.9105Z" fill="rgb(190.04,165.75,255)" fill-rule="nonzero" />
		</g>
		<path id="path918" d="M4.22625 0L0.667303 0C0.298952 0 0 0.298952 0 0.667302C0 1.03565 0.298952 1.3346 0.667303 1.3346L4.22625 1.3346C4.5946 1.3346 4.89355 1.03565 4.89355 0.667302C4.89355 0.298952 4.5946 0 4.22625 0Z" fill="rgb(190.04,165.75,255)" fill-rule="nonzero" transform="matrix(1,0,0,-1,42.1313,75.3599)" />
		<path id="path920" d="M0.667302 0C0.298952 0 0 0.298952 0 0.667303L0 4.22625C0 4.5946 0.298952 4.89355 0.667302 4.89355C1.03565 4.89355 1.3346 4.5946 1.3346 4.22625L1.3346 0.667303C1.3346 0.298952 1.03565 0 0.667302 0Z" fill="rgb(190.04,165.75,255)" fill-rule="nonzero" transform="matrix(1,0,0,-1,43.9115,77.1395)" />
	</g>
</svg>
