<svg viewBox="0 0 15 15" xmlns="http://www.w3.org/2000/svg" xmlns:xlink="http://www.w3.org/1999/xlink" width="15.000000" height="15.000000" fill="none" customFrame="#000000">
	<rect id="Exclamation Circled" width="15.000000" height="15.000000" x="0.000000" y="0.000000" />
	<path id="Shape" d="M13.9654 8.94584C14.0703 8.47555 14.1227 7.99356 14.1227 7.49988C14.1227 7.00616 14.0703 6.52414 13.9654 6.05382C13.8795 5.66864 13.7584 5.29131 13.6021 4.92183C13.4441 4.54827 13.2554 4.19489 13.0362 3.86167C12.7903 3.48804 12.5059 3.13976 12.1829 2.81683C11.86 2.49385 11.5116 2.20941 11.1379 1.96351C10.8048 1.74427 10.4514 1.55567 10.0779 1.39769C9.70845 1.24141 9.33111 1.12031 8.94592 1.0344C8.47561 0.929495 7.99361 0.877045 7.49991 0.877045C7.00617 0.877045 6.52414 0.929501 6.05381 1.03441C5.66864 1.12033 5.29133 1.24142 4.92186 1.39769C4.54835 1.55567 4.195 1.74429 3.86181 1.96354C3.48814 2.20944 3.13982 2.49387 2.81686 2.81683C2.4939 3.13979 2.20947 3.48811 1.96357 3.86178C1.74432 4.19497 1.55571 4.54832 1.39773 4.92183C1.24145 5.29129 1.12036 5.66861 1.03445 6.05377C0.929532 6.5241 0.877075 7.00614 0.877075 7.49988C0.877075 7.99359 0.929528 8.4756 1.03443 8.94591C1.12035 9.33109 1.24145 9.70843 1.39773 10.0779C1.5557 10.4514 1.7443 10.8047 1.96354 11.1379C2.20944 11.5116 2.49388 11.8599 2.81686 12.1829C3.1398 12.5059 3.48809 12.7903 3.86174 13.0361C4.19495 13.2554 4.54832 13.4441 4.92186 13.6021C5.29134 13.7583 5.66867 13.8794 6.05385 13.9653C6.52417 14.0703 7.00619 14.1227 7.49991 14.1227C7.99358 14.1227 8.47556 14.0703 8.94584 13.9654C9.33106 13.8795 9.70843 13.7583 10.0779 13.6021C10.4515 13.4441 10.8048 13.2555 11.138 13.0362C11.5117 12.7903 11.86 12.5059 12.1829 12.1829C12.5059 11.86 12.7903 11.5116 13.0362 11.138C13.2555 10.8048 13.4441 10.4514 13.6021 10.0779C13.7584 9.70841 13.8795 9.33105 13.9654 8.94584ZM13.0339 6.24264C13.1265 6.65124 13.1727 7.07032 13.1727 7.49988C13.1727 7.92938 13.1265 8.34842 13.034 8.75697C12.9607 9.0805 12.8584 9.39745 12.7271 9.70784C12.5932 10.0245 12.4335 10.3242 12.2481 10.6071C12.0361 10.9305 11.7905 11.2319 11.5112 11.5112C11.2319 11.7905 10.9305 12.0361 10.6071 12.2481C10.3243 12.4335 10.0245 12.5932 9.70787 12.7271C9.39749 12.8584 9.08054 12.9607 8.75702 13.0339C8.34846 13.1264 7.92942 13.1727 7.49991 13.1727C7.07035 13.1727 6.65128 13.1264 6.24269 13.0339C5.9192 12.9606 5.60228 12.8584 5.29193 12.7271C4.97531 12.5932 4.67555 12.4335 4.39268 12.2481C4.06926 12.0361 3.76791 11.7905 3.48861 11.5112C3.20931 11.2319 2.96366 10.9305 2.75167 10.6071C2.56626 10.3242 2.4066 10.0245 2.27268 9.70784C2.1414 9.39747 2.03913 9.08053 1.96587 8.75702C1.87334 8.34845 1.82708 7.9294 1.82708 7.49988C1.82708 7.07033 1.87334 6.65125 1.96588 6.24266C2.03915 5.91917 2.14141 5.60225 2.27268 5.2919C2.4066 4.97527 2.56627 4.67552 2.75169 4.39264C2.96368 4.06923 3.20932 3.76787 3.48861 3.48858C3.7679 3.20929 4.06926 2.96365 4.39267 2.75166C4.67555 2.56624 4.9753 2.40657 5.29193 2.27265C5.60228 2.14138 5.9192 2.03911 6.24269 1.96585C6.65128 1.87331 7.07036 1.82704 7.49991 1.82704C7.92942 1.82704 8.34846 1.87331 8.75702 1.96583C9.08054 2.0391 9.39749 2.14137 9.70787 2.27265C10.0245 2.40656 10.3242 2.56622 10.6071 2.75162C10.9305 2.96362 11.2319 3.20927 11.5112 3.48858C11.7905 3.76787 12.0361 4.06922 12.2481 4.39263C12.4335 4.67551 12.5932 4.97527 12.7271 5.2919C12.8584 5.60225 12.9607 5.91916 13.0339 6.24264ZM6.82705 4.48613C6.81236 4.10425 7.11797 3.78665 7.50014 3.78665C7.88231 3.78665 8.18793 4.10425 8.17324 4.48614L8.01936 8.48703C8.00863 8.76602 7.77934 8.98666 7.50014 8.98666C7.22095 8.98666 6.99166 8.76602 6.98093 8.48703L6.82705 4.48613ZM7.50012 9.72601C7.91434 9.72601 8.25012 10.0618 8.25012 10.476C8.25012 10.8902 7.91434 11.226 7.50012 11.226C7.08591 11.226 6.75012 10.8902 6.75012 10.476C6.75012 10.0618 7.08591 9.72601 7.50012 9.72601Z" fill="rgb(0,0,0)" fill-rule="evenodd" />
</svg>
