<svg viewBox="0 0 8.00773 8.00659" xmlns="http://www.w3.org/2000/svg" xmlns:xlink="http://www.w3.org/1999/xlink" width="8.007730" height="8.006592" fill="none" customFrame="#000000">
	<path id="Vector" d="M4.94382 4.00279L7.81049 1.14279C7.93603 1.01725 8.00655 0.84699 8.00655 0.669455C8.00655 0.491921 7.93603 0.321658 7.81049 0.196122C7.68495 0.0705864 7.51469 6.10352e-05 7.33716 6.10352e-05C7.15962 6.10352e-05 6.98936 0.0705864 6.86382 0.196122L4.00382 3.06279L1.14382 0.196122C1.01829 0.0705864 0.848026 6.10338e-05 0.670491 6.10352e-05C0.492957 6.10365e-05 0.322694 0.0705864 0.197158 0.196122C0.071622 0.321658 0.00109673 0.491921 0.00109673 0.669455C0.00109672 0.84699 0.071622 1.01725 0.197158 1.14279L3.06382 4.00279L0.197158 6.86279C0.134672 6.92476 0.0850762 6.9985 0.0512304 7.07974C0.0173846 7.16098 -4.1008e-05 7.24811 -4.1008e-05 7.33612C-4.1008e-05 7.42413 0.0173846 7.51127 0.0512304 7.59251C0.0850762 7.67375 0.134672 7.74748 0.197158 7.80945C0.259133 7.87194 0.332867 7.92154 0.414107 7.95538C0.495346 7.98923 0.582483 8.00665 0.670491 8.00665C0.758499 8.00665 0.845636 7.98923 0.926876 7.95538C1.00812 7.92154 1.08185 7.87194 1.14382 7.80945L4.00382 4.94279L6.86382 7.80945C6.9258 7.87194 6.99953 7.92154 7.08077 7.95538C7.16201 7.98923 7.24915 8.00665 7.33716 8.00665C7.42517 8.00665 7.5123 7.98923 7.59354 7.95538C7.67478 7.92154 7.74851 7.87194 7.81049 7.80945C7.87298 7.74748 7.92257 7.67375 7.95642 7.59251C7.99026 7.51127 8.00769 7.42413 8.00769 7.33612C8.00769 7.24811 7.99026 7.16098 7.95642 7.07974C7.92257 6.9985 7.87298 6.92476 7.81049 6.86279L4.94382 4.00279Z" fill="currentColor" fill-rule="nonzero" />
</svg>
