<svg viewBox="0 0 24 24" xmlns="http://www.w3.org/2000/svg" xmlns:xlink="http://www.w3.org/1999/xlink" width="24.000000" height="24.000000" fill="none">
	<rect id="copy" width="24.000000" height="24.000000" x="0.000000" y="0.000000" fill="rgb(255,255,255)" fill-opacity="0" />
	<g id="Layer 2">
		<g id="copy">
			<path id="Vector" d="M24 0L0 0L0 24L24 24L24 0Z" opacity="0" fill="rgb(0,0,0)" fill-rule="evenodd" />
			<path id="Vector" d="M18 9L15 9L15 5.67C14.9974 4.96268 14.7152 4.28509 14.2151 3.78494C13.7149 3.28478 13.0373 3.00263 12.33 3L5.67 3C4.96268 3.00263 4.28509 3.28478 3.78494 3.78494C3.28478 4.28509 3.00263 4.96268 3 5.67L3 12.33C3.00263 13.0373 3.28478 13.7149 3.78494 14.2151C4.28509 14.7152 4.96268 14.9974 5.67 15L9 15L9 18C9 18.7957 9.31607 19.5587 9.87868 20.1213C10.4413 20.6839 11.2044 21 12 21L18 21C18.7957 21 19.5587 20.6839 20.1213 20.1213C20.6839 19.5587 21 18.7957 21 18L21 12C21 11.2044 20.6839 10.4413 20.1213 9.87868C19.5587 9.31607 18.7957 9 18 9ZM9 12L9 13L5.67 13C5.4923 13 5.32189 12.9294 5.19624 12.8038C5.07059 12.6781 5 12.5077 5 12.33L5 5.67C5 5.4923 5.07059 5.32189 5.19624 5.19624C5.32189 5.07059 5.4923 5 5.67 5L12.33 5C12.5077 5 12.6781 5.07059 12.8038 5.19624C12.9294 5.32189 13 5.4923 13 5.67L13 9L12 9C11.2044 9 10.4413 9.31607 9.87868 9.87868C9.31607 10.4413 9 11.2044 9 12Z" fill="rgb(0,0,0)" fill-rule="nonzero" />
		</g>
	</g>
</svg>
