<svg viewBox="0 0 24 24" xmlns="http://www.w3.org/2000/svg" xmlns:xlink="http://www.w3.org/1999/xlink" width="24.000000" height="24.000000" fill="none">
	<rect id="copy-outline" width="24.000000" height="24.000000" x="0.000000" y="0.000000" fill="rgb(255,255,255)" fill-opacity="0" />
	<g id="Layer 2">
		<g id="copy">
			<path id="Vector" d="M24 0L0 0L0 24L24 24L24 0Z" opacity="0" fill="rgb(0,0,0)" fill-rule="evenodd" />
			<path id="Vector" d="M18 21L12 21C11.2044 21 10.4413 20.6839 9.87868 20.1213C9.31607 19.5587 9 18.7957 9 18L9 12C9 11.2044 9.31607 10.4413 9.87868 9.87868C10.4413 9.31607 11.2044 9 12 9L18 9C18.7957 9 19.5587 9.31607 20.1213 9.87868C20.6839 10.4413 21 11.2044 21 12L21 18C21 18.7957 20.6839 19.5587 20.1213 20.1213C19.5587 20.6839 18.7957 21 18 21ZM12 11C11.7348 11 11.4804 11.1054 11.2929 11.2929C11.1054 11.4804 11 11.7348 11 12L11 18C11 18.2652 11.1054 18.5196 11.2929 18.7071C11.4804 18.8946 11.7348 19 12 19L18 19C18.2652 19 18.5196 18.8946 18.7071 18.7071C18.8946 18.5196 19 18.2652 19 18L19 12C19 11.7348 18.8946 11.4804 18.7071 11.2929C18.5196 11.1054 18.2652 11 18 11L12 11Z" fill="rgb(0,0,0)" fill-rule="nonzero" />
			<path id="Vector" d="M9.73 15L5.67 15C4.96268 14.9974 4.28509 14.7152 3.78494 14.2151C3.28478 13.7149 3.00263 13.0373 3 12.33L3 5.67C3.00263 4.96268 3.28478 4.28509 3.78494 3.78494C4.28509 3.28478 4.96268 3.00263 5.67 3L12.33 3C13.0373 3.00263 13.7149 3.28478 14.2151 3.78494C14.7152 4.28509 14.9974 4.96268 15 5.67L15 9.4L13 9.4L13 5.67C13 5.4923 12.9294 5.32189 12.8038 5.19624C12.6781 5.07059 12.5077 5 12.33 5L5.67 5C5.4923 5 5.32189 5.07059 5.19624 5.19624C5.07059 5.32189 5 5.4923 5 5.67L5 12.33C5 12.5077 5.07059 12.6781 5.19624 12.8038C5.32189 12.9294 5.4923 13 5.67 13L9.73 13L9.73 15Z" fill="rgb(0,0,0)" fill-rule="nonzero" />
		</g>
	</g>
</svg>
