<svg viewBox="0 0 24 24" xmlns="http://www.w3.org/2000/svg" xmlns:xlink="http://www.w3.org/1999/xlink" width="24.000000" height="24.000000" fill="none">
	<rect id="email" width="24.000000" height="24.000000" x="0.000000" y="0.000000" fill="rgb(255,255,255)" fill-opacity="0" />
	<g id="Layer 2">
		<g id="email">
			<path id="Vector" d="M24 0L0 0L0 24L24 24L24 0Z" opacity="0" fill="rgb(0,0,0)" fill-rule="evenodd" />
			<path id="Vector" d="M19 4L5 4C4.20435 4 3.44129 4.31607 2.87868 4.87868C2.31607 5.44129 2 6.20435 2 7L2 17C2 17.7957 2.31607 18.5587 2.87868 19.1213C3.44129 19.6839 4.20435 20 5 20L19 20C19.7956 20 20.5587 19.6839 21.1213 19.1213C21.6839 18.5587 22 17.7957 22 17L22 7C22 6.20435 21.6839 5.44129 21.1213 4.87868C20.5587 4.31607 19.7956 4 19 4ZM19 6L12.5 10.47C12.348 10.5578 12.1755 10.604 12 10.604C11.8245 10.604 11.652 10.5578 11.5 10.47L5 6L19 6Z" fill="rgb(0,0,0)" fill-rule="nonzero" />
		</g>
	</g>
</svg>
