<svg viewBox="0 0 451 192.008" xmlns="http://www.w3.org/2000/svg" width="450.999908" height="192.007568" fill="none">
	<defs>
		<linearGradient id="paint_linear_0" x1="247.383011" x2="247.383011" y1="175.173019" y2="-74.3305969" gradientUnits="userSpaceOnUse">
			<stop stop-color="rgb(255,255,255)" offset="0.000654349977" stop-opacity="0" />
			<stop stop-color="rgb(214,215,244)" offset="1" stop-opacity="1" />
		</linearGradient>
		<linearGradient id="paint_linear_1" x1="107.921417" x2="107.921417" y1="140.702255" y2="173.465164" gradientUnits="userSpaceOnUse">
			<stop stop-color="rgb(255,255,255)" offset="0.000991430017" stop-opacity="0" />
			<stop stop-color="rgb(176,190,197)" offset="1" stop-opacity="1" />
		</linearGradient>
		<linearGradient id="paint_linear_2" x1="209.646515" x2="169.165024" y1="166.311646" y2="166.311646" gradientUnits="userSpaceOnUse">
			<stop stop-color="rgb(255,255,255)" offset="0.000991430017" stop-opacity="0" />
			<stop stop-color="rgb(176,190,197)" offset="1" stop-opacity="1" />
		</linearGradient>
		<linearGradient id="paint_linear_3" x1="91.1271896" x2="91.1271896" y1="121.129601" y2="160.385773" gradientUnits="userSpaceOnUse">
			<stop stop-color="rgb(255,255,255)" offset="0.000991430017" stop-opacity="0" />
			<stop stop-color="rgb(176,190,197)" offset="1" stop-opacity="1" />
		</linearGradient>
		<linearGradient id="paint_linear_4" x1="192.852356" x2="152.370773" y1="138.567993" y2="138.567993" gradientUnits="userSpaceOnUse">
			<stop stop-color="rgb(255,255,255)" offset="0.000991430017" stop-opacity="0" />
			<stop stop-color="rgb(176,190,197)" offset="1" stop-opacity="1" />
		</linearGradient>
		<linearGradient id="paint_linear_5" x1="175.475998" x2="134.994507" y1="166.311646" y2="166.311646" gradientUnits="userSpaceOnUse">
			<stop stop-color="rgb(255,255,255)" offset="0.000991430017" stop-opacity="0" />
			<stop stop-color="rgb(176,190,197)" offset="1" stop-opacity="1" />
		</linearGradient>
		<linearGradient id="paint_linear_6" x1="356.633392" x2="311.003052" y1="149.525299" y2="203.11441" gradientUnits="userSpaceOnUse">
			<stop stop-color="rgb(255,255,255)" offset="0.000991430017" stop-opacity="0" />
			<stop stop-color="rgb(176,190,197)" offset="1" stop-opacity="1" />
		</linearGradient>
		<linearGradient id="paint_linear_7" x1="4.69555664" x2="66.6431732" y1="143.134476" y2="169.323517" gradientUnits="userSpaceOnUse">
			<stop stop-color="rgb(255,255,255)" offset="0.000654349977" stop-opacity="0" />
			<stop stop-color="rgb(0,0,0)" offset="1" stop-opacity="1" />
		</linearGradient>
		<linearGradient id="paint_linear_8" x1="26.7008781" x2="26.7360649" y1="96.2248993" y2="114.744476" gradientUnits="userSpaceOnUse">
			<stop stop-color="rgb(255,255,255)" offset="0.000654349977" stop-opacity="0" />
			<stop stop-color="rgb(0,0,0)" offset="1" stop-opacity="1" />
		</linearGradient>
		<linearGradient id="paint_linear_9" x1="421.680054" x2="481.244232" y1="144.324646" y2="169.50592" gradientUnits="userSpaceOnUse">
			<stop stop-color="rgb(255,255,255)" offset="0.000654349977" stop-opacity="0" />
			<stop stop-color="rgb(0,0,0)" offset="1" stop-opacity="1" />
		</linearGradient>
		<linearGradient id="paint_linear_10" x1="442.73114" x2="442.765289" y1="99.1464996" y2="117.114204" gradientUnits="userSpaceOnUse">
			<stop stop-color="rgb(255,255,255)" offset="0.000654349977" stop-opacity="0" />
			<stop stop-color="rgb(0,0,0)" offset="1" stop-opacity="1" />
		</linearGradient>
		<linearGradient id="paint_linear_11" x1="144.500046" x2="279.119812" y1="4.89588928" y2="193.599976" gradientUnits="userSpaceOnUse">
			<stop stop-color="rgb(255,255,255)" offset="0.000654349977" stop-opacity="0" />
			<stop stop-color="rgb(0,0,0)" offset="1" stop-opacity="1" />
		</linearGradient>
	</defs>
	<g id="404">
		<g id="Group">
			<g id="Group">
				<g id="Group">
					<g id="Group">
						<path id="Vector" d="M296.1 16.0001L296.1 32.2001L193.4 32.2001L193.4 2.1001L119.9 2.1001L119.9 175.5L193.4 175.5L374.9 176.6L374.9 16.0001L296.1 16.0001Z" fill="url(#paint_linear_0)" fill-rule="nonzero" />
						<path id="Vector" d="M356.3 26.9L307.7 26.9C307 26.9 306.5 26.3 306.5 25.7C306.5 25 307.1 24.5 307.7 24.5L356.3 24.5C357 24.5 357.5 25.1 357.5 25.7C357.5 26.3 356.9 26.9 356.3 26.9Z" fill="rgb(255,255,255)" fill-rule="nonzero" />
						<path id="Vector" d="M356.3 36.5001L307.7 36.5001C307 36.5001 306.5 35.9001 306.5 35.3001C306.5 34.6001 307.1 34.1001 307.7 34.1001L356.3 34.1001C357 34.1001 357.5 34.7001 357.5 35.3001C357.5 35.9001 356.9 36.5001 356.3 36.5001Z" fill="rgb(255,255,255)" fill-rule="nonzero" />
						<path id="Vector" d="M356.3 46.1002L307.7 46.1002C307 46.1002 306.5 45.5002 306.5 44.9002C306.5 44.2002 307.1 43.7002 307.7 43.7002L356.3 43.7002C357 43.7002 357.5 44.3002 357.5 44.9002C357.5 45.6002 356.9 46.1002 356.3 46.1002Z" fill="rgb(255,255,255)" fill-rule="nonzero" />
						<path id="Vector" d="M356.3 55.7001L307.7 55.7001C307 55.7001 306.5 55.1001 306.5 54.5001C306.5 53.8001 307.1 53.3 307.7 53.3L356.3 53.3C357 53.3 357.5 53.9001 357.5 54.5001C357.5 55.2001 356.9 55.7001 356.3 55.7001Z" fill="rgb(255,255,255)" fill-rule="nonzero" />
						<path id="Vector" d="M356.3 65.3001L307.7 65.3001C307 65.3001 306.5 64.7001 306.5 64.1001C306.5 63.4001 307.1 62.9001 307.7 62.9001L356.3 62.9001C357 62.9001 357.5 63.5001 357.5 64.1001C357.5 64.8001 356.9 65.3001 356.3 65.3001Z" fill="rgb(255,255,255)" fill-rule="nonzero" />
						<path id="Vector" d="M356.3 75.0001L307.7 75.0001C307 75.0001 306.5 74.4001 306.5 73.8001C306.5 73.1001 307.1 72.6001 307.7 72.6001L356.3 72.6001C357 72.6001 357.5 73.2001 357.5 73.8001C357.5 74.4001 356.9 75.0001 356.3 75.0001Z" fill="rgb(255,255,255)" fill-rule="nonzero" />
						<path id="Vector" d="M134.6 11.2002L128.3 11.2002L128.3 17.5002L134.6 17.5002L134.6 11.2002Z" fill="rgb(255,255,255)" fill-rule="nonzero" />
						<path id="Vector" d="M147.3 11.2002L141 11.2002L141 17.5002L147.3 17.5002L147.3 11.2002Z" fill="rgb(255,255,255)" fill-rule="nonzero" />
						<path id="Vector" d="M160.1 11.2002L153.8 11.2002L153.8 17.5002L160.1 17.5002L160.1 11.2002Z" fill="rgb(255,255,255)" fill-rule="nonzero" />
						<path id="Vector" d="M172.8 11.2002L166.5 11.2002L166.5 17.5002L172.8 17.5002L172.8 11.2002Z" fill="rgb(255,255,255)" fill-rule="nonzero" />
						<path id="Vector" d="M134.6 26.9001L128.3 26.9001L128.3 33.2001L134.6 33.2001L134.6 26.9001Z" fill="rgb(255,255,255)" fill-rule="nonzero" />
						<path id="Vector" d="M147.3 26.9001L141 26.9001L141 33.2001L147.3 33.2001L147.3 26.9001Z" fill="rgb(255,255,255)" fill-rule="nonzero" />
						<path id="Vector" d="M160.1 26.9001L153.8 26.9001L153.8 33.2001L160.1 33.2001L160.1 26.9001Z" fill="rgb(255,255,255)" fill-rule="nonzero" />
						<path id="Vector" d="M172.8 26.9001L166.5 26.9001L166.5 33.2001L172.8 33.2001L172.8 26.9001Z" fill="rgb(255,255,255)" fill-rule="nonzero" />
						<path id="Vector" d="M134.6 42.6001L128.3 42.6001L128.3 48.9001L134.6 48.9001L134.6 42.6001Z" fill="rgb(255,255,255)" fill-rule="nonzero" />
						<path id="Vector" d="M147.3 42.6001L141 42.6001L141 48.9001L147.3 48.9001L147.3 42.6001Z" fill="rgb(255,255,255)" fill-rule="nonzero" />
						<path id="Vector" d="M160.1 42.6001L153.8 42.6001L153.8 48.9001L160.1 48.9001L160.1 42.6001Z" fill="rgb(255,255,255)" fill-rule="nonzero" />
						<path id="Vector" d="M172.8 42.6001L166.5 42.6001L166.5 48.9001L172.8 48.9001L172.8 42.6001Z" fill="rgb(255,255,255)" fill-rule="nonzero" />
					</g>
					<path id="Vector" d="M255 139.7C249.8 150.9 242.7 150.9 240.4 150.9C234.8 150.9 230.1 147.4 226.6 140.4C222.3 132 220.1 119.4 220.1 103.9C220.1 103.7 220.1 103.5 220.1 103.3L190.4 103.3C190.4 103.4 190.4 103.6 190.4 103.7C190.6 125.6 195.1 143.9 203.5 156.5C212.2 169.6 224.6 176.5 239.4 176.5C255.7 176.5 269 169.4 277.9 156.1C286.2 143.5 290.5 125.7 290.7 103.3L261 103.3C260.9 118.9 258.8 131.5 255 139.7Z" fill="rgb(162.199,127.5,255)" fill-rule="evenodd" />
					<path id="Vector" d="M291.9 50.2001C283.3 37.0001 270.6 30.1001 255 30.1001C239.6 30.1001 226.7 37.0001 217.5 50.1001C208.5 62.9001 203.8 81.3001 203.7 103.3L233.4 103.3C233.5 87.6001 235.8 74.8001 240.2 66.3001C243.8 59.3001 248.5 55.7001 253.9 55.7001C261.5 55.7001 274.3 61.8001 274.3 102.7C274.3 102.9 274.3 103.1 274.3 103.3L304 103.3C304 102.8 304 102.4 304 101.9C304.1 80.1001 300 62.6001 291.9 50.2001Z" fill="rgb(162.199,127.5,255)" fill-rule="evenodd" />
					<path id="Vector" d="M405.1 110.9L392.9 110.9L392.9 36.1001L392.9 30.1001L386.9 30.1001L367.9 30.1001L364.8 30.1001L363 32.7001L305 115.8L303.9 117.4L303.9 119.3L303.9 130.9L303.9 136.9L309.9 136.9L364.3 136.9L364.3 166.3L364.3 172.3L370.3 172.3L386.9 172.3L392.9 172.3L392.9 166.3L392.9 136.9L405.1 136.9L411.1 136.9L411.1 130.9L411.1 116.9L411.1 110.9L405.1 110.9ZM339.2 110.9L364.3 76.0001L364.3 110.9L339.2 110.9Z" fill="rgb(162.199,127.5,255)" fill-rule="evenodd" />
					<g id="Group">
						<g id="Group">
							<path id="Vector" d="M72.3999 172.5C71.4999 172.5 70.5999 171.8 70.4999 170.8L51.6999 3.70006C51.5999 2.70006 52.2999 1.70005 53.3999 1.60005C54.3999 1.50005 55.3999 2.20005 55.4999 3.30005L74.2999 170.4C74.3999 171.4 73.6999 172.4 72.5999 172.5C72.4999 172.5 72.4999 172.5 72.3999 172.5Z" fill="rgb(140,158,165)" fill-rule="nonzero" />
							<path id="Vector" d="M123.4 172.5C122.5 172.5 121.6 171.8 121.5 170.8L102.7 3.70006C102.6 2.70006 103.3 1.70005 104.4 1.60005C105.4 1.50005 106.4 2.20005 106.5 3.30005L125.3 170.4C125.4 171.4 124.7 172.4 123.6 172.5C123.5 172.5 123.5 172.5 123.4 172.5Z" fill="rgb(140,158,165)" fill-rule="nonzero" />
							<path id="Vector" d="M106.5 22.8L55.4999 22.8C54.4999 22.8 53.5999 22 53.5999 20.9C53.5999 19.9 54.3999 19 55.4999 19L106.5 19C107.5 19 108.4 19.8 108.4 20.9C108.4 22 107.6 22.8 106.5 22.8Z" fill="rgb(140,158,165)" fill-rule="nonzero" />
							<path id="Vector" d="M107.6 39.4001L57.6999 39.4001C56.6999 39.4001 55.7999 38.6001 55.7999 37.5001C55.7999 36.5001 56.5999 35.6001 57.6999 35.6001L107.6 35.6001C108.6 35.6001 109.5 36.4001 109.5 37.5001C109.5 38.6001 108.6 39.4001 107.6 39.4001Z" fill="rgb(140,158,165)" fill-rule="nonzero" />
							<path id="Vector" d="M108.7 56L59.7999 56C58.7999 56 57.8999 55.1999 57.8999 54.0999C57.8999 53.0999 58.6999 52.2 59.7999 52.2L108.7 52.2C109.7 52.2 110.6 52.9999 110.6 54.0999C110.5 55.0999 109.7 56 108.7 56Z" fill="rgb(140,158,165)" fill-rule="nonzero" />
							<path id="Vector" d="M112.1 72.6001L61.9999 72.6001C60.9999 72.6001 60.0999 71.8001 60.0999 70.7001C60.0999 69.7001 60.8999 68.8 61.9999 68.8L112.1 68.8C113.1 68.8 114 69.6001 114 70.7001C114 71.7001 113.2 72.6001 112.1 72.6001Z" fill="rgb(140,158,165)" fill-rule="nonzero" />
							<path id="Vector" d="M114 89.1999L63.5999 89.1999C62.5999 89.1999 61.6999 88.3999 61.6999 87.2999C61.6999 86.2999 62.4999 85.3999 63.5999 85.3999L114 85.3999C115 85.3999 115.9 86.1999 115.9 87.2999C115.9 88.2999 115 89.1999 114 89.1999Z" fill="rgb(140,158,165)" fill-rule="nonzero" />
							<path id="Vector" d="M115.9 105.7L65.3999 105.7C64.3999 105.7 63.4999 104.9 63.4999 103.8C63.4999 102.8 64.2999 101.9 65.3999 101.9L115.9 101.9C116.9 101.9 117.8 102.7 117.8 103.8C117.8 104.9 116.9 105.7 115.9 105.7Z" fill="rgb(140,158,165)" fill-rule="nonzero" />
						</g>
						<path id="Vector" d="M104.9 7L50.0999 7C48.1999 7 46.5999 5.4 46.5999 3.5C46.5999 1.6 48.1999 0 50.0999 0L104.9 0C106.8 0 108.4 1.6 108.4 3.5C108.4 5.4 106.9 7 104.9 7Z" fill="rgb(176,190,197)" fill-rule="nonzero" />
						<g id="Group">
							<path id="Vector" d="M83.3999 172.5C83.2999 172.5 83.2999 172.5 83.1999 172.5C82.1999 172.4 81.3999 171.5 81.4999 170.4L100.3 3.30001C100.4 2.30001 101.3 1.50001 102.4 1.60001C103.4 1.70001 104.2 2.60002 104.1 3.70002L85.2999 170.8C85.1999 171.8 84.3999 172.5 83.3999 172.5Z" fill="rgb(176,190,197)" fill-rule="nonzero" />
							<path id="Vector" d="M32.3999 172.5C32.2999 172.5 32.2999 172.5 32.1999 172.5C31.1999 172.4 30.3999 171.5 30.4999 170.4L49.2999 3.30001C49.3999 2.30001 50.2999 1.50001 51.3999 1.60001C52.3999 1.70001 53.1999 2.60002 53.0999 3.70002L34.2999 170.8C34.1999 171.8 33.3999 172.5 32.3999 172.5Z" fill="rgb(176,190,197)" fill-rule="nonzero" />
							<path id="Vector" d="M100.3 22.8L49.2999 22.8C48.2999 22.8 47.3999 22 47.3999 20.9C47.3999 19.9 48.1999 19 49.2999 19L100.3 19C101.3 19 102.2 19.8 102.2 20.9C102.2 22 101.4 22.8 100.3 22.8Z" fill="rgb(176,190,197)" fill-rule="nonzero" />
							<path id="Vector" d="M98.1999 39.4001L48.2999 39.4001C47.2999 39.4001 46.3999 38.6001 46.3999 37.5001C46.3999 36.5001 47.1999 35.6001 48.2999 35.6001L98.1999 35.6001C99.1999 35.6001 100.1 36.4001 100.1 37.5001C100.1 38.6001 99.1999 39.4001 98.1999 39.4001Z" fill="rgb(176,190,197)" fill-rule="nonzero" />
							<path id="Vector" d="M96.0999 56L47.1999 56C46.1999 56 45.2999 55.1999 45.2999 54.0999C45.2999 53.0999 46.0999 52.2 47.1999 52.2L96.0999 52.2C97.0999 52.2 97.9999 52.9999 97.9999 54.0999C97.8999 55.0999 97.0999 56 96.0999 56Z" fill="rgb(176,190,197)" fill-rule="nonzero" />
							<path id="Vector" d="M93.8999 72.6001L43.7999 72.6001C42.7999 72.6001 41.8999 71.8001 41.8999 70.7001C41.8999 69.7001 42.6999 68.8 43.7999 68.8L93.8999 68.8C94.8999 68.8 95.7999 69.6001 95.7999 70.7001C95.6999 71.7001 94.8999 72.6001 93.8999 72.6001Z" fill="rgb(176,190,197)" fill-rule="nonzero" />
							<path id="Vector" d="M92.2999 89.1999L41.8999 89.1999C40.8999 89.1999 39.9999 88.3999 39.9999 87.2999C39.9999 86.2999 40.7999 85.3999 41.8999 85.3999L92.2999 85.3999C93.2999 85.3999 94.1999 86.1999 94.1999 87.2999C94.1999 88.2999 93.2999 89.1999 92.2999 89.1999Z" fill="rgb(176,190,197)" fill-rule="nonzero" />
							<path id="Vector" d="M90.4999 105.7L39.9999 105.7C38.9999 105.7 38.0999 104.9 38.0999 103.8C38.0999 102.8 38.8999 101.9 39.9999 101.9L90.4999 101.9C91.4999 101.9 92.3999 102.7 92.3999 103.8C92.2999 104.9 91.4999 105.7 90.4999 105.7Z" fill="rgb(176,190,197)" fill-rule="nonzero" />
						</g>
					</g>
					<path id="Vector" d="M137.7 124.7L200.1 83.5001L205.1 80.2001L201.8 75.2001L191.3 59.3L189.6 56.7001L186.5 56.6001L85.2 53.9001L83.3 53.8L81.7 54.8L72 61.2001L67 64.5001L70.3 69.5001L100.3 114.9L75.8 131.1L70.8 134.4L74.1 139.4L83.3 153.3L86.6 158.3L91.6 155L116.1 138.8L122.8 149L126.1 154L131.1 150.7L142.6 143.1L147.6 139.8L144.3 134.8L137.7 124.7ZM108.1 79.8L151 81.5001L121.9 100.7L108.1 79.8Z" fill="rgb(162.199,127.5,255)" fill-rule="evenodd" />
					<g id="Group">
						<g id="Group">
							<path id="Vector" d="M49.8 150.7C41.2 150.7 34.2 157.7 34.2 166.3C34.2 174.9 41.2 181.9 49.8 181.9L181.6 181.9L181.6 150.7L49.8 150.7Z" fill="rgb(176,190,197)" fill-rule="nonzero" />
							<path id="Vector" d="M49.8 150.7C41.2 150.7 34.2 157.7 34.2 166.3C34.2 174.9 41.2 181.9 49.8 181.9L181.6 181.9L181.6 150.7L49.8 150.7Z" fill="url(#paint_linear_1)" fill-rule="nonzero" />
							<path id="Vector" d="M15.6 31.2C24.2156 31.2 31.2 24.2156 31.2 15.6C31.2 6.98436 24.2156 0 15.6 0C6.98436 0 0 6.98436 0 15.6C0 24.2156 6.98436 31.2 15.6 31.2Z" fill="rgb(207,216,220)" fill-rule="nonzero" transform="matrix(0.9254,-0.3791,0.3791,0.9254,161.266,157.785)" />
							<path id="Vector" d="M181.6 177.5C187.786 177.5 192.8 172.485 192.8 166.3C192.8 160.114 187.786 155.1 181.6 155.1C175.414 155.1 170.4 160.114 170.4 166.3C170.4 172.485 175.414 177.5 181.6 177.5Z" fill="rgb(176,190,197)" fill-rule="nonzero" />
							<path id="Vector" d="M181.6 177.5C187.786 177.5 192.8 172.485 192.8 166.3C192.8 160.114 187.786 155.1 181.6 155.1C175.414 155.1 170.4 160.114 170.4 166.3C170.4 172.485 175.414 177.5 181.6 177.5Z" fill="url(#paint_linear_2)" fill-rule="nonzero" />
						</g>
						<g id="Group">
							<path id="Vector" d="M33 123C24.4 123 17.4 130 17.4 138.6C17.4 147.2 24.4 154.2 33 154.2L164.8 154.2L164.8 123L33 123Z" fill="rgb(176,190,197)" fill-rule="nonzero" />
							<path id="Vector" d="M33 123C24.4 123 17.4 130 17.4 138.6C17.4 147.2 24.4 154.2 33 154.2L164.8 154.2L164.8 123L33 123Z" fill="url(#paint_linear_3)" fill-rule="nonzero" />
							<path id="Vector" d="M15.6 31.2C24.2156 31.2 31.2 24.2156 31.2 15.6C31.2 6.98436 24.2156 0 15.6 0C6.98433 0 0 6.98436 0 15.6C0 24.2156 6.98433 31.2 15.6 31.2Z" fill="rgb(207,216,220)" fill-rule="nonzero" transform="matrix(0.7071,-0.7071,0.7071,0.7071,142.762,138.604)" />
							<path id="Vector" d="M164.8 149.8C170.986 149.8 176 144.786 176 138.6C176 132.414 170.986 127.4 164.8 127.4C158.614 127.4 153.6 132.414 153.6 138.6C153.6 144.786 158.614 149.8 164.8 149.8Z" fill="rgb(176,190,197)" fill-rule="nonzero" />
							<path id="Vector" d="M164.8 149.8C170.986 149.8 176 144.786 176 138.6C176 132.414 170.986 127.4 164.8 127.4C158.614 127.4 153.6 132.414 153.6 138.6C153.6 144.786 158.614 149.8 164.8 149.8Z" fill="url(#paint_linear_4)" fill-rule="nonzero" />
						</g>
						<g id="Group">
							<path id="Vector" d="M15.6 150.7C7.00001 150.7 0 157.7 0 166.3C0 174.9 7.00001 181.9 15.6 181.9L147.4 181.9L147.4 150.7L15.6 150.7Z" fill="rgb(176,190,197)" fill-rule="nonzero" />
							<path id="Vector" d="M15.6 31.2C24.2156 31.2 31.2 24.2156 31.2 15.6C31.2 6.98436 24.2156 0 15.6 0C6.98436 0 0 6.98436 0 15.6C0 24.2156 6.98436 31.2 15.6 31.2Z" fill="rgb(207,216,220)" fill-rule="nonzero" transform="matrix(0.921,-0.3896,0.3896,0.921,126.95,158.051)" />
							<path id="Vector" d="M147.4 177.5C153.586 177.5 158.6 172.485 158.6 166.3C158.6 160.114 153.586 155.1 147.4 155.1C141.214 155.1 136.2 160.114 136.2 166.3C136.2 172.485 141.214 177.5 147.4 177.5Z" fill="rgb(176,190,197)" fill-rule="nonzero" />
							<path id="Vector" d="M147.4 177.5C153.586 177.5 158.6 172.485 158.6 166.3C158.6 160.114 153.586 155.1 147.4 155.1C141.214 155.1 136.2 160.114 136.2 166.3C136.2 172.485 141.214 177.5 147.4 177.5Z" fill="url(#paint_linear_5)" fill-rule="nonzero" />
						</g>
					</g>
					<path id="Vector" d="M259.6 176.4C253.6 176.4 250.7 168.9 255.3 165C256 164.4 256.8 163.9 257.6 163.5C260.9 161.8 264.8 161.7 268.3 163C270.5 163.8 273 163.3 274.8 161.8C277.4 159.5 281 158.2 284.6 158.1C288 158 291.3 158.8 294.6 159.8C297.2 160.7 300.2 159.7 301.8 157.5C308.8 147.9 320.2 141.8 332 139.7C339.1 138.4 346.7 138.4 353.4 141C358.5 143 363 146.6 365.8 151.2C367.2 153.5 369.9 154.7 372.6 154.2C377.7 153.2 383.5 155.1 387.1 158.9C389.2 161.1 392.4 161.7 395 160.3C397.3 159 399.8 158.1 402.5 158C405.5 157.9 408.7 159.2 410.7 161.4C412.3 163.2 414.7 163.9 417.1 163.5C418.9 163.2 420.8 163.5 422.4 164.4C422.4 164.4 422.5 164.4 422.5 164.5C428.2 167.8 425.7 176.5 419.1 176.5L259.6 176.4Z" fill="rgb(207,216,220)" fill-rule="nonzero" />
					<path id="Vector" d="M259.6 176.4C253.6 176.4 250.7 168.9 255.3 165C256 164.4 256.8 163.9 257.6 163.5C260.9 161.8 264.8 161.7 268.3 163C270.5 163.8 273 163.3 274.8 161.8C277.4 159.5 281 158.2 284.6 158.1C288 158 291.3 158.8 294.6 159.8C297.2 160.7 300.2 159.7 301.8 157.5C308.8 147.9 320.2 141.8 332 139.7C339.1 138.4 346.7 138.4 353.4 141C358.5 143 363 146.6 365.8 151.2C367.2 153.5 369.9 154.7 372.6 154.2C377.7 153.2 383.5 155.1 387.1 158.9C389.2 161.1 392.4 161.7 395 160.3C397.3 159 399.8 158.1 402.5 158C405.5 157.9 408.7 159.2 410.7 161.4C412.3 163.2 414.7 163.9 417.1 163.5C418.9 163.2 420.8 163.5 422.4 164.4C422.4 164.4 422.5 164.4 422.5 164.5C428.2 167.8 425.7 176.5 419.1 176.5L259.6 176.4Z" fill="url(#paint_linear_6)" fill-rule="nonzero" />
					<path id="Vector" d="M429 169.6L249.5 169.6C248 169.6 246.8 170.8 246.8 172.3L246.8 179.3C246.8 180.8 248 182 249.5 182L429 182C430.5 182 431.7 180.8 431.7 179.3L431.7 172.3C431.7 170.8 430.5 169.6 429 169.6Z" fill="rgb(69,90,100)" fill-rule="nonzero" />
					<g id="Group">
						<g id="Group">
							<g id="Group">
								<g id="Group">
									<path id="Vector" d="M7.5 0L0 0L0 78.8L7.5 78.8L7.5 0Z" fill="rgb(55,71,79)" fill-rule="nonzero" transform="matrix(1,-0.00186863,0.00186863,1,20.6265,113.208)" />
									<path id="Vector" d="M15.2998 188.7L15.2998 189.6C15.2998 190.9 16.3998 192 17.6998 192L31.4998 192C32.7998 192 33.8998 190.9 33.8998 189.6L33.8998 188.7L15.2998 188.7Z" fill="rgb(55,71,79)" fill-rule="nonzero" />
									<path id="Vector" d="M28.3998 185.1L20.7998 185.1L15.2998 188.7L33.9998 188.7L28.3998 185.1Z" fill="rgb(69,90,100)" fill-rule="nonzero" />
								</g>
								<path id="Vector" d="M28.3999 185.1L28.1999 113.2L25.3999 113.2L25.5999 185.1L28.2999 188.7L28.2999 189.6C28.2999 190.9 27.1999 192 25.8999 192L31.5999 192C32.8999 192 33.9999 190.9 33.9999 189.6L33.9999 188.7L28.3999 185.1Z" fill="url(#paint_linear_7)" fill-rule="nonzero" />
								<path id="Vector" d="M33.4998 104.1C33.4998 99.1 29.3998 95 24.3998 95C19.3998 95 15.2998 99.1 15.2998 104.1C15.2998 109.1 19.3998 113.2 24.3998 113.2C29.3998 113.2 33.4998 109.1 33.4998 104.1Z" fill="rgb(229,57,53)" fill-rule="nonzero" />
								<path id="Vector" d="M24.3997 113.2C29.3997 113.2 33.4998 109.1 33.4998 104.1C33.4998 102.5 33.0998 101 32.2998 99.7L19.9998 112C21.2998 112.7 22.7997 113.2 24.3997 113.2Z" fill="url(#paint_linear_8)" fill-rule="nonzero" />
							</g>
							<g id="Group">
								<g id="Group">
									<path id="Vector" d="M7.29999 0L0 0L0 75.7L7.29999 75.7L7.29999 0Z" fill="rgb(55,71,79)" fill-rule="nonzero" transform="matrix(1,-0.00187138,0.00187138,1,436.93,115.607)" />
									<path id="Vector" d="M431.6 188L431.6 188.8C431.6 190.1 432.7 191.2 434 191.2L447.4 191.2C448.7 191.2 449.8 190.1 449.8 188.8L449.8 188L431.6 188Z" fill="rgb(55,71,79)" fill-rule="nonzero" />
									<path id="Vector" d="M444.4 184.5L437 184.5L431.6 188L449.8 188L444.4 184.5Z" fill="rgb(69,90,100)" fill-rule="nonzero" />
								</g>
								<path id="Vector" d="M444.4 184.5L444.2 115.6L441.5 115.6L441.7 184.5L444.3 188L444.3 188.8C444.3 190.1 443.2 191.2 441.9 191.2L447.4 191.2C448.7 191.2 449.8 190.1 449.8 188.8L449.8 188L444.4 184.5Z" fill="url(#paint_linear_9)" fill-rule="nonzero" />
								<path id="Vector" d="M449.3 106.8C449.3 101.9 445.3 98 440.5 98C435.6 98 431.7 102 431.7 106.8C431.7 111.7 435.7 115.6 440.5 115.6C445.4 115.6 449.3 111.6 449.3 106.8Z" fill="rgb(229,57,53)" fill-rule="nonzero" />
								<path id="Vector" d="M440.5 115.6C445.4 115.6 449.3 111.6 449.3 106.8C449.3 105.2 448.9 103.8 448.2 102.5L436.2 114.5C437.5 115.2 438.9 115.6 440.5 115.6Z" fill="url(#paint_linear_10)" fill-rule="nonzero" />
								<path id="Vector" d="M439.3 102.5C439.3 103.4 438.6 104.2 437.6 104.2C436.6 104.2 435.9 103.5 435.9 102.5C435.9 101.6 436.6 100.8 437.6 100.8C438.5 100.8 439.3 101.5 439.3 102.5Z" opacity="0.5" fill="rgb(255,255,255)" fill-rule="nonzero" />
							</g>
						</g>
						<g id="Group">
							<path id="Vector" d="M436.8 0L0 0L0 16.5L436.8 16.5L436.8 0Z" fill="rgb(245,209,0)" fill-rule="nonzero" transform="matrix(1,-0.0018665,0.0018665,1,14.0852,116.408)" />
							<path id="Vector" d="M32.8999 116.4L16.3999 132.9L14.0999 132.9L14.0999 123.5L21.2999 116.4L32.8999 116.4Z" fill="rgb(38,50,56)" fill-rule="nonzero" />
							<path id="Vector" d="M54.7999 116.3L38.2999 132.9L26.6999 132.9L43.0999 116.3L54.7999 116.3Z" fill="rgb(38,50,56)" fill-rule="nonzero" />
							<path id="Vector" d="M76.6999 116.3L60.1999 132.8L48.4999 132.8L64.9999 116.3L76.6999 116.3Z" fill="rgb(38,50,56)" fill-rule="nonzero" />
							<path id="Vector" d="M98.5999 116.2L82.0999 132.8L70.3999 132.8L86.8999 116.3L98.5999 116.2Z" fill="rgb(38,50,56)" fill-rule="nonzero" />
							<path id="Vector" d="M120.5 116.2L104 132.7L92.2999 132.8L108.8 116.2L120.5 116.2Z" fill="rgb(38,50,56)" fill-rule="nonzero" />
							<path id="Vector" d="M142.3 116.2L125.9 132.7L114.2 132.7L130.7 116.2L142.3 116.2Z" fill="rgb(38,50,56)" fill-rule="nonzero" />
							<path id="Vector" d="M164.2 116.1L147.8 132.7L136.1 132.7L152.6 116.1L164.2 116.1Z" fill="rgb(38,50,56)" fill-rule="nonzero" />
							<path id="Vector" d="M186.1 116.1L169.6 132.6L158 132.6L174.4 116.1L186.1 116.1Z" fill="rgb(38,50,56)" fill-rule="nonzero" />
							<path id="Vector" d="M208 116L191.5 132.6L179.8 132.6L196.3 116L208 116Z" fill="rgb(38,50,56)" fill-rule="nonzero" />
							<path id="Vector" d="M229.9 116L213.4 132.5L201.7 132.6L218.2 116L229.9 116Z" fill="rgb(38,50,56)" fill-rule="nonzero" />
							<path id="Vector" d="M251.8 115.9L235.3 132.5L223.6 132.5L240.1 116L251.8 115.9Z" fill="rgb(38,50,56)" fill-rule="nonzero" />
							<path id="Vector" d="M273.7 115.9L257.2 132.4L245.5 132.5L262 115.9L273.7 115.9Z" fill="rgb(38,50,56)" fill-rule="nonzero" />
							<path id="Vector" d="M295.5 115.9L279.1 132.4L267.4 132.4L283.9 115.9L295.5 115.9Z" fill="rgb(38,50,56)" fill-rule="nonzero" />
							<path id="Vector" d="M317.4 115.8L300.9 132.4L289.3 132.4L305.8 115.8L317.4 115.8Z" fill="rgb(38,50,56)" fill-rule="nonzero" />
							<path id="Vector" d="M339.3 115.8L322.8 132.3L311.2 132.3L327.6 115.8L339.3 115.8Z" fill="rgb(38,50,56)" fill-rule="nonzero" />
							<path id="Vector" d="M361.2 115.7L344.7 132.3L333 132.3L349.5 115.8L361.2 115.7Z" fill="rgb(38,50,56)" fill-rule="nonzero" />
							<path id="Vector" d="M383.1 115.7L366.6 132.2L354.9 132.3L371.4 115.7L383.1 115.7Z" fill="rgb(38,50,56)" fill-rule="nonzero" />
							<path id="Vector" d="M405 115.7L388.5 132.2L376.8 132.2L393.3 115.7L405 115.7Z" fill="rgb(38,50,56)" fill-rule="nonzero" />
							<path id="Vector" d="M426.9 115.6L410.4 132.2L398.7 132.2L415.2 115.6L426.9 115.6Z" fill="rgb(38,50,56)" fill-rule="nonzero" />
							<path id="Vector" d="M448.7 115.6L432.3 132.1L420.6 132.1L437.1 115.6L448.7 115.6Z" fill="rgb(38,50,56)" fill-rule="nonzero" />
							<path id="Vector" d="M450.9 123.6L451 132.1L442.5 132.1L450.9 123.6Z" fill="rgb(38,50,56)" fill-rule="nonzero" />
							<path id="Vector" d="M14.0999 132.9L451 132.1L450.9 123.7L14.0999 124.5L14.0999 132.9Z" fill="url(#paint_linear_11)" fill-rule="nonzero" />
						</g>
					</g>
				</g>
			</g>
		</g>
	</g>
</svg>
