<svg viewBox="0 0 24 24" xmlns="http://www.w3.org/2000/svg" xmlns:xlink="http://www.w3.org/1999/xlink" width="24.000000" height="24.000000" fill="none">
	<rect id="eye" width="24.000000" height="24.000000" x="0.000000" y="0.000000" fill="rgb(255,255,255)" fill-opacity="0" />
	<g id="Layer 2">
		<g id="eye">
			<path id="Vector" d="M24 0L0 0L0 24L24 24L24 0Z" opacity="0" fill="rgb(0,0,0)" fill-rule="evenodd" />
			<path id="Vector" d="M12 13.5C12.8284 13.5 13.5 12.8284 13.5 12C13.5 11.1716 12.8284 10.5 12 10.5C11.1716 10.5 10.5 11.1716 10.5 12C10.5 12.8284 11.1716 13.5 12 13.5Z" fill="rgb(0,0,0)" fill-rule="evenodd" />
			<path id="Vector" d="M21.87 11.5C21.23 10.39 17.71 4.81999 11.73 4.99999C6.20001 5.13999 3.00001 9.99999 2.13001 11.5C2.04224 11.652 1.99603 11.8245 1.99603 12C1.99603 12.1755 2.04224 12.348 2.13001 12.5C2.76001 13.59 6.13001 19 12.02 19L12.27 19C17.8 18.86 21.01 14 21.87 12.5C21.9578 12.348 22.004 12.1755 22.004 12C22.004 11.8245 21.9578 11.652 21.87 11.5ZM12 15.5C11.3078 15.5 10.6311 15.2947 10.0555 14.9101C9.47994 14.5256 9.03134 13.9789 8.76643 13.3394C8.50152 12.6998 8.43221 11.9961 8.56726 11.3172C8.70231 10.6382 9.03565 10.0146 9.52513 9.52512C10.0146 9.03564 10.6383 8.70229 11.3172 8.56724C11.9961 8.4322 12.6999 8.50151 13.3394 8.76641C13.9789 9.03132 14.5256 9.47993 14.9102 10.0555C15.2947 10.6311 15.5 11.3078 15.5 12C15.5 12.9283 15.1313 13.8185 14.4749 14.4749C13.8185 15.1312 12.9283 15.5 12 15.5Z" fill="rgb(0,0,0)" fill-rule="nonzero" />
		</g>
	</g>
</svg>
