<svg viewBox="0 0 24 24" xmlns="http://www.w3.org/2000/svg" xmlns:xlink="http://www.w3.org/1999/xlink" width="24.000000" height="24.000000" fill="none">
	<rect id="facebook-svgrepo-com (1) 1" width="24.000000" height="24.000000" x="0.000000" y="0.000000" fill="rgb(255,255,255)" fill-opacity="0" />
	<rect id="Rectangle 478" width="13.000000" height="20.000000" x="8.000000" y="4.000000" fill="rgb(255,255,255)" />
	<path id="Vector" d="M20.7658 0L3.23417 0C1.44809 0 0.00012207 1.44791 0.00012207 3.23405L0.00012207 20.7658C0.00012207 22.552 1.44803 23.9999 3.23417 23.9999L11.8807 23.9999L11.8954 15.4236L9.66733 15.4236C9.37778 15.4236 9.14276 15.1895 9.14164 14.8999L9.13096 12.1354C9.12984 11.8443 9.36556 11.6077 9.65671 11.6077L11.8808 11.6077L11.8808 8.93651C11.8808 5.83661 13.774 4.14869 16.5393 4.14869L18.8084 4.14869C19.0988 4.14869 19.3342 4.38406 19.3342 4.67444L19.3342 7.00547C19.3342 7.29573 19.0989 7.53104 18.8087 7.53122L17.4162 7.53187C15.9123 7.53187 15.6211 8.24648 15.6211 9.29522L15.6211 11.6078L18.9256 11.6078C19.2405 11.6078 19.4848 11.8827 19.4477 12.1954L19.12 14.9599C19.0887 15.2244 18.8643 15.4237 18.598 15.4237L15.6359 15.4237L15.6211 24L20.766 24C22.552 24 23.9999 22.5521 23.9999 20.766L23.9999 3.23405C23.9999 1.44791 22.552 0 20.7658 0Z" fill="rgb(71,89,147)" fill-rule="nonzero" />
</svg>
