<svg viewBox="0 0 24 24" xmlns="http://www.w3.org/2000/svg" xmlns:xlink="http://www.w3.org/1999/xlink" width="24.000000" height="24.000000" fill="none">
	<rect id="layers-outline" width="24.000000" height="24.000000" x="0.000000" y="0.000000" fill="rgb(255,255,255)" fill-opacity="0" />
	<g id="Layer 2">
		<g id="layers">
			<path id="Vector" d="M24 0L0 0L0 24L24 24L24 0Z" opacity="0" fill="rgb(0,0,0)" fill-rule="evenodd" transform="matrix(-1,1.22465e-16,-1.22465e-16,-1,24,24)" />
			<path id="Vector" d="M21 11.35C20.9885 11.1641 20.9253 10.985 20.8175 10.8331C20.7098 10.6811 20.5617 10.5623 20.39 10.49L18.24 9.57001L20.5 8.27001C20.6602 8.17785 20.7918 8.04309 20.88 7.88068C20.9683 7.71828 21.0098 7.53459 21 7.35001C20.9885 7.16407 20.9253 6.98503 20.8175 6.83308C20.7098 6.68113 20.5617 6.56231 20.39 6.49001L12.39 3.08001C12.2666 3.02775 12.134 3.00082 12 3.00082C11.866 3.00082 11.7334 3.02775 11.61 3.08001L3.61 6.49001C3.4383 6.56231 3.29022 6.68113 3.18244 6.83308C3.07466 6.98503 3.01147 7.16407 3 7.35001C2.99017 7.53459 3.03169 7.71828 3.11996 7.88068C3.20822 8.04309 3.33977 8.17785 3.5 8.27001L5.76 9.57001L3.61 10.49C3.4383 10.5623 3.29022 10.6811 3.18244 10.8331C3.07466 10.985 3.01147 11.1641 3 11.35C2.99017 11.5346 3.03169 11.7183 3.11996 11.8807C3.20822 12.0431 3.33977 12.1779 3.5 12.27L5.76 13.57L3.61 14.49C3.4383 14.5623 3.29022 14.6811 3.18244 14.8331C3.07466 14.985 3.01147 15.1641 3 15.35C2.99017 15.5346 3.03169 15.7183 3.11996 15.8807C3.20822 16.0431 3.33977 16.1779 3.5 16.27L11.5 20.87C11.652 20.9578 11.8245 21.004 12 21.004C12.1755 21.004 12.348 20.9578 12.5 20.87L20.5 16.27C20.6602 16.1779 20.7918 16.0431 20.88 15.8807C20.9683 15.7183 21.0098 15.5346 21 15.35C20.9885 15.1641 20.9253 14.985 20.8175 14.8331C20.7098 14.6811 20.5617 14.5623 20.39 14.49L18.24 13.57L20.5 12.27C20.6602 12.1779 20.7918 12.0431 20.88 11.8807C20.9683 11.7183 21.0098 11.5346 21 11.35ZM12 5.09001L17.76 7.54001L12 10.85L6.24 7.54001L12 5.09001ZM11.5 12.87C11.652 12.9578 11.8245 13.004 12 13.004C12.1755 13.004 12.348 12.9578 12.5 12.87L16.07 10.87L17.76 11.59L12 14.85L6.24 11.54L7.93 10.82L11.5 12.87ZM17.76 15.54L12 18.85L6.24 15.54L7.93 14.82L11.5 16.87C11.652 16.9578 11.8245 17.004 12 17.004C12.1755 17.004 12.348 16.9578 12.5 16.87L16.07 14.82L17.76 15.54Z" fill="rgb(0,0,0)" fill-rule="nonzero" />
		</g>
	</g>
</svg>
