<svg viewBox="0 0 24 24" xmlns="http://www.w3.org/2000/svg" xmlns:xlink="http://www.w3.org/1999/xlink" width="24.000000" height="24.000000" fill="none" customFrame="#000000">
	<defs>
		<clipPath id="clipPath_0">
			<rect width="12.000000" height="12.000000" x="6.000000" y="6.000000" fill="rgb(255,255,255)" />
		</clipPath>
	</defs>
	<rect id="more-vertical-outline" width="24.000000" height="24.000000" x="0.000000" y="0.000000" />
	<rect id="Rectangle 587" width="24.000000" height="24.000000" x="0.000000" y="0.000000" />
	<g id="Group 1399">
		<circle id="Ellipse 106" cx="12" cy="12" r="8.5" stroke="rgb(0,0,0)" stroke-width="1" />
		<g id="more-vertical-outline" clip-path="url(#clipPath_0)" customFrame="url(#clipPath_0)">
			<rect id="more-vertical-outline" width="12.000000" height="12.000000" x="6.000000" y="6.000000" fill="rgb(255,255,255)" fill-opacity="0" />
			<g id="Layer 2">
				<g id="more-vertical">
					<path id="Vector" d="M12 0L0 0L0 12L12 12L12 0Z" opacity="0" fill="rgb(0,0,0)" fill-rule="evenodd" transform="matrix(6.12323e-17,-1,1,6.12323e-17,6,18)" />
					<path id="Vector" d="M12 13C12.5523 13 13 12.5523 13 12C13 11.4477 12.5523 11 12 11C11.4477 11 11 11.4477 11 12C11 12.5523 11.4477 13 12 13Z" fill="rgb(0,0,0)" fill-rule="evenodd" />
					<path id="Vector" d="M12 9.5C12.5523 9.5 13 9.05228 13 8.5C13 7.94772 12.5523 7.5 12 7.5C11.4477 7.5 11 7.94772 11 8.5C11 9.05228 11.4477 9.5 12 9.5Z" fill="rgb(0,0,0)" fill-rule="evenodd" />
					<path id="Vector" d="M12 16.5C12.5523 16.5 13 16.0523 13 15.5C13 14.9477 12.5523 14.5 12 14.5C11.4477 14.5 11 14.9477 11 15.5C11 16.0523 11.4477 16.5 12 16.5Z" fill="rgb(0,0,0)" fill-rule="evenodd" />
				</g>
			</g>
		</g>
	</g>
</svg>
