<svg viewBox="0 0 24 24" xmlns="http://www.w3.org/2000/svg" xmlns:xlink="http://www.w3.org/1999/xlink" width="24.000000" height="24.000000" fill="none">
	<rect id="more-horizontal" width="24.000000" height="24.000000" x="0.000000" y="0.000000" fill="rgb(255,255,255)" fill-opacity="0" />
	<g id="Layer 2">
		<g id="more-horizotnal">
			<path id="Vector" d="M24 0L0 0L0 24L24 24L24 0Z" opacity="0" fill="rgb(0,0,0)" fill-rule="evenodd" />
			<path id="Vector" d="M12 14C13.1046 14 14 13.1046 14 12C14 10.8954 13.1046 10 12 10C10.8954 10 10 10.8954 10 12C10 13.1046 10.8954 14 12 14Z" fill="rgb(0,0,0)" fill-rule="evenodd" />
			<path id="Vector" d="M19 14C20.1046 14 21 13.1046 21 12C21 10.8954 20.1046 10 19 10C17.8954 10 17 10.8954 17 12C17 13.1046 17.8954 14 19 14Z" fill="rgb(0,0,0)" fill-rule="evenodd" />
			<path id="Vector" d="M5 14C6.10457 14 7 13.1046 7 12C7 10.8954 6.10457 10 5 10C3.89543 10 3 10.8954 3 12C3 13.1046 3.89543 14 5 14Z" fill="rgb(0,0,0)" fill-rule="evenodd" />
		</g>
	</g>
</svg>
