<svg viewBox="0 0 24 24" xmlns="http://www.w3.org/2000/svg" xmlns:xlink="http://www.w3.org/1999/xlink" width="24.000000" height="24.000000" fill="none">
	<rect id="paper-plane" width="24.000000" height="24.000000" x="0.000000" y="0.000000" fill="rgb(255,255,255)" fill-opacity="0" />
	<g id="Layer 2">
		<g id="paper-plane">
			<path id="Vector" d="M24 0L0 0L0 24L24 24L24 0Z" opacity="0" fill="rgb(0,0,0)" fill-rule="evenodd" />
			<path id="Vector" d="M21 3.99999C20.9896 3.90813 20.9695 3.81762 20.94 3.72999L20.94 3.63999C20.892 3.5287 20.8243 3.42705 20.74 3.33999C20.6551 3.26026 20.557 3.19596 20.45 3.14999L20.36 3.14999C20.2678 3.0796 20.1624 3.02858 20.05 2.99999L20 2.99999C19.9006 2.98491 19.7994 2.98491 19.7 2.99999L1.69999 8.99999C1.49992 9.06575 1.32572 9.193 1.20222 9.36358C1.07873 9.53417 1.01224 9.73939 1.01224 9.94999C1.01224 10.1606 1.07873 10.3658 1.20222 10.5364C1.32572 10.707 1.49992 10.8342 1.69999 10.9L10.23 13.74L13.07 22.27C13.1357 22.4701 13.263 22.6443 13.4336 22.7678C13.6042 22.8913 13.8094 22.9577 14.02 22.9577C14.2306 22.9577 14.4358 22.8913 14.6064 22.7678C14.777 22.6443 14.9042 22.4701 14.97 22.27L20.97 4.26999C20.9922 4.18178 21.0023 4.09094 21 3.99999ZM16.3 6.28999L10.73 11.86L5.15999 9.99999L16.3 6.28999ZM14 18.84L12.14 13.27L17.71 7.69999L14 18.84Z" fill="rgb(0,0,0)" fill-rule="nonzero" />
		</g>
	</g>
</svg>
