<svg viewBox="0 0 24 24" xmlns="http://www.w3.org/2000/svg" xmlns:xlink="http://www.w3.org/1999/xlink" width="24.000000" height="24.000000">
	<rect id="edit-2-outline" width="24.000000" height="24.000000" x="0.000000" y="0.000000" fill-opacity="0" />
	<g id="Layer 2">
		<g id="edit-2">
			<path fill="currentColor" id="Vector" d="M24 0L0 0L0 24L24 24L24 0Z" opacity="0" />
			<path fill="currentColor" id="Vector" d="M19 20L5 20C4.73478 20 4.48043 20.1054 4.29289 20.2929C4.10536 20.4804 4 20.7348 4 21C4 21.2652 4.10536 21.5196 4.29289 21.7071C4.48043 21.8946 4.73478 22 5 22L19 22C19.2652 22 19.5196 21.8946 19.7071 21.7071C19.8946 21.5196 20 21.2652 20 21C20 20.7348 19.8946 20.4804 19.7071 20.2929C19.5196 20.1054 19.2652 20 19 20Z" />
			<path fill="currentColor" id="Vector" d="M4.99999 18L5.08999 18L9.25999 17.62C9.71679 17.5745 10.144 17.3732 10.47 17.05L19.47 8.05C19.8193 7.68096 20.0081 7.1885 19.995 6.68053C19.9818 6.17256 19.7679 5.6905 19.4 5.34L16.66 2.6C16.3024 2.26409 15.8338 2.07135 15.3433 2.05845C14.8529 2.04554 14.3748 2.21336 14 2.53L4.99999 11.53C4.67676 11.856 4.4755 12.2832 4.42999 12.74L3.99999 16.91C3.98652 17.0565 4.00553 17.2041 4.05565 17.3424C4.10578 17.4807 4.18579 17.6062 4.28999 17.71C4.38343 17.8027 4.49425 17.876 4.61609 17.9258C4.73792 17.9755 4.86838 18.0008 4.99999 18ZM15.27 4L18 6.73L16 8.68L13.32 6L15.27 4ZM6.36999 12.91L12 7.32L14.7 10.02L9.09999 15.62L6.09999 15.9L6.36999 12.91Z" />
		</g>
	</g>
</svg>
