<svg viewBox="0 0 24 24" xmlns="http://www.w3.org/2000/svg" xmlns:xlink="http://www.w3.org/1999/xlink" width="24.000000" height="24.000000" fill="none" customFrame="#000000">
	<defs>
		<clipPath id="clipPath_1">
			<rect width="24.000000" height="24.000000" x="0.000000" y="0.000000" fill="rgb(255,255,255)" />
		</clipPath>
	</defs>
	<rect id="radio_button_checked" width="24.000000" height="24.000000" x="0.000000" y="0.000000" fill="rgb(255,255,255)" fill-opacity="0" />
	<g id="radio_button_checked" clip-path="url(#clipPath_1)" customFrame="url(#clipPath_1)">
		<rect id="radio_button_checked" width="24.000000" height="24.000000" x="0.000000" y="0.000000" />
		<path id="Vector" d="M0 0L24 0L24 24L0 24L0 0Z" fill-rule="nonzero" />
		<path id="Vector" d="M12 7C9.24 7 7 9.24 7 12C7 14.76 9.24 17 12 17C14.76 17 17 14.76 17 12C17 9.24 14.76 7 12 7ZM12 2C6.48 2 2 6.48 2 12C2 17.52 6.48 22 12 22C17.52 22 22 17.52 22 12C22 6.48 17.52 2 12 2ZM12 20C7.58 20 4 16.42 4 12C4 7.58 7.58 4 12 4C16.42 4 20 7.58 20 12C20 16.42 16.42 20 12 20Z" fill="rgb(0,0,0)" fill-rule="nonzero" />
	</g>
</svg>
