<svg viewBox="0 0 32 32" xmlns="http://www.w3.org/2000/svg" xmlns:xlink="http://www.w3.org/1999/xlink" width="32.000000" height="32.000000">
	<defs>
		<g id="pixso_custom_effect_0">
			<effect x="0.000000" y="4.000000" visibility="visible" fill-opacity="0.25" effectType="dropShadow" stdDeviation="4" radius="0" />
		</g>
		<filter id="filter_0" width="32.000000" height="32.000000" x="0.000000" y="0.000000" filterUnits="userSpaceOnUse" customEffect="url(#pixso_custom_effect_0)" color-interpolation-filters="sRGB">
			<feFlood flood-opacity="0" result="BackgroundImageFix" />
			<feColorMatrix result="hardAlpha" in="SourceAlpha" type="matrix" values="0 0 0 0 0 0 0 0 0 0 0 0 0 0 0 0 0 0 127 0 " />
			<feOffset dx="0.000000" dy="4.000000" in="hardAlpha" />
			<feGaussianBlur stdDeviation="1.33333337" />
			<feComposite k2="-1" k3="1" in2="hardAlpha" operator="out" />
			<feColorMatrix type="matrix" values="0 0 0 0 0 0 0 0 0 0 0 0 0 0 0 0 0 0 0.25 0 " />
			<feBlend result="effect_dropShadow_1" in2="BackgroundImageFix" mode="normal" />
			<feBlend result="shape" in="SourceGraphic" in2="effect_dropShadow_1" mode="normal" />
		</filter>
	</defs>
	<g filter="url(#filter_0)">
		<rect id="star" width="24.000000" height="24.000000" x="4.000000" y="0.000000" fill-opacity="0" />
	</g>
	<g id="Layer 2">
		<g id="star">
			<path fill="currentColor" id="Vector" d="M24 0L0 0L0 24L24 24L24 0Z" opacity="0" transform="matrix(6.12323e-17,1,-1,6.12323e-17,28,0)" />
			<path fill="currentColor" id="Vector" d="M21.56 21C21.4001 21.0006 21.2423 20.9629 21.1 20.89L16 18.22L10.9 20.89C10.7344 20.9771 10.5477 21.0159 10.3611 21.0022C10.1745 20.9884 9.99548 20.9226 9.84444 20.8122C9.69339 20.7018 9.57635 20.5512 9.50662 20.3776C9.4369 20.2039 9.41728 20.0142 9.45001 19.83L10.45 14.2L6.33001 10.2C6.20146 10.0717 6.11028 9.91086 6.06623 9.73468C6.02219 9.55851 6.02695 9.37366 6.08001 9.19999C6.13797 9.02226 6.24458 8.86434 6.38776 8.74415C6.53093 8.62395 6.70493 8.5463 6.89001 8.51999L12.59 7.68999L15.1 2.55999C15.1819 2.39092 15.3097 2.24833 15.4689 2.14856C15.6281 2.0488 15.8122 1.99588 16 1.99588C16.1879 1.99588 16.3719 2.0488 16.5311 2.14856C16.6903 2.24833 16.8181 2.39092 16.9 2.55999L19.44 7.67999L25.14 8.50999C25.3251 8.5363 25.4991 8.61395 25.6423 8.73415C25.7854 8.85434 25.892 9.01226 25.95 9.18999C26.0031 9.36366 26.0078 9.54851 25.9638 9.72468C25.9197 9.90086 25.8286 10.0617 25.7 10.19L21.58 14.19L22.58 19.82C22.6157 20.0075 22.597 20.2012 22.5261 20.3784C22.4553 20.5556 22.3352 20.7089 22.18 20.82C21.9989 20.9469 21.7809 21.0102 21.56 21Z" />
		</g>
	</g>
</svg>
