<svg viewBox="0 0 24 16" xmlns="http://www.w3.org/2000/svg" xmlns:xlink="http://www.w3.org/1999/xlink" width="24.000000" height="16.000000" fill="none">
	<rect id="stripe-svgrepo-com (4)" width="24.000000" height="16.000000" x="0.000000" y="0.000000" fill="rgb(255,255,255)" fill-opacity="0" />
	<path id="Vector" d="M22.087 0L1.91304 0C0.856499 0 0 0.838275 0 1.87234L0 14.1277C0 15.1617 0.856499 16 1.91304 16L22.087 16C23.1435 16 24 15.1617 24 14.1277L24 1.87234C24 0.838275 23.1435 0 22.087 0Z" fill="rgb(255,255,255)" fill-rule="evenodd" />
	<path id="Vector" d="M1.91304 0L22.087 0C23.1435 0 24 0.838275 24 1.87234L24 14.1277C24 15.1617 23.1435 16 22.087 16L1.91304 16C0.856499 16 0 15.1617 0 14.1277L0 1.87234C0 0.838275 0.856499 0 1.91304 0ZM1.91304 1L22.087 1C22.1704 1 22.2512 1.01024 22.3293 1.03073C22.3699 1.04141 22.4099 1.05486 22.4491 1.0711C22.5086 1.09573 22.5644 1.12583 22.6164 1.16139C22.6604 1.19139 22.7016 1.22528 22.7402 1.26306C22.8336 1.35446 22.9018 1.45563 22.9448 1.56656C22.9816 1.66136 23 1.76328 23 1.87234L23 14.1277C23 14.2367 22.9816 14.3386 22.9448 14.4334C22.9018 14.5444 22.8336 14.6455 22.7402 14.7369C22.6575 14.8179 22.5667 14.8801 22.4676 14.9237C22.3519 14.9746 22.225 15 22.087 15L1.91304 15C1.82959 15 1.74882 14.9898 1.67074 14.9693C1.63006 14.9586 1.59011 14.9451 1.55089 14.9289C1.49141 14.9043 1.43565 14.8742 1.38362 14.8387C1.33968 14.8086 1.2984 14.7747 1.25978 14.7369C1.1664 14.6455 1.09819 14.5444 1.05516 14.4334C1.01839 14.3386 1 14.2367 1 14.1277L1 1.87234C1 1.76328 1.01839 1.66135 1.05516 1.56656C1.09819 1.45563 1.1664 1.35446 1.25978 1.26306C1.2984 1.22526 1.33969 1.19135 1.38363 1.16134C1.43566 1.1258 1.49141 1.09572 1.55089 1.0711C1.59011 1.05486 1.63006 1.04141 1.67075 1.03073C1.74882 1.01024 1.82959 1 1.91304 1Z" fill="rgb(243,243,243)" fill-rule="evenodd" />
	<path id="Vector" d="M12.7266 5.35444L11.5074 5.61611L11.5074 4.62765L12.7266 4.37085L12.7266 5.35444ZM15.262 5.90198C14.7859 5.90198 14.4799 6.12484 14.31 6.27991L14.2468 5.9795L13.1782 5.9795L13.1782 11.6291L14.3925 11.3723L14.3974 10.0011C14.5722 10.127 14.8297 10.3063 15.2571 10.3063C16.1265 10.3063 16.9182 9.60861 16.9182 8.07264C16.9134 6.66751 16.1119 5.90198 15.262 5.90198ZM14.9705 9.24035C14.6839 9.24035 14.5139 9.13862 14.3973 9.01262L14.3925 7.21502C14.5188 7.07452 14.6936 6.97763 14.9705 6.97763C15.4125 6.97763 15.7185 7.47182 15.7185 8.10655C15.7185 8.75582 15.4173 9.24035 14.9705 9.24035ZM20.7457 8.12109C20.7457 6.8807 20.1434 5.90198 18.9923 5.90198C17.8363 5.90198 17.1369 6.8807 17.1369 8.11142C17.1369 9.56983 17.9626 10.3063 19.1477 10.3063C19.7257 10.3063 20.1629 10.1755 20.4931 9.99137L20.4931 9.02232C20.1629 9.18707 19.784 9.28883 19.3032 9.28883C18.832 9.28883 18.4143 9.12408 18.3609 8.55234L20.736 8.55234C20.736 8.52566 20.7378 8.46508 20.7398 8.39524C20.7425 8.30027 20.7457 8.18808 20.7457 8.12109ZM18.3463 7.6608C18.3463 7.1133 18.6814 6.88557 18.9874 6.88557C19.2837 6.88557 19.5994 7.1133 19.5994 7.6608L18.3463 7.6608ZM11.5074 5.98434L12.7265 5.98434L12.7265 10.224L11.5074 10.224L11.5074 5.98434ZM10.1232 5.98434L10.2009 6.3429C10.4875 5.81959 11.0558 5.92619 11.2112 5.98434L11.2112 7.09876C11.0606 7.04544 10.5749 6.97763 10.2883 7.35072L10.2883 10.224L9.07405 10.224L9.07405 5.98434L10.1232 5.98434ZM7.77225 4.9329L6.5871 5.18486L6.58226 9.06594C6.58226 9.78302 7.1214 10.3112 7.84024 10.3112C8.23854 10.3112 8.52996 10.2385 8.69025 10.1513L8.69025 9.1677C8.53483 9.23068 7.76738 9.45357 7.76738 8.73645L7.76738 7.01637L8.69025 7.01637L8.69025 5.98434L7.76738 5.98434L7.77225 4.9329ZM4.90175 6.95342C4.6443 6.95342 4.48888 7.02607 4.48888 7.21506C4.48888 7.42139 4.75638 7.51214 5.08823 7.62474C5.62922 7.8083 6.3413 8.04988 6.34432 8.9448C6.34432 9.81213 5.64972 10.3112 4.63946 10.3112C4.22172 10.3112 3.76514 10.2288 3.31343 10.035L3.31343 8.88182C3.72143 9.10471 4.2363 9.26945 4.63946 9.26945C4.91145 9.26945 5.10575 9.19677 5.10575 8.97388C5.10575 8.74536 4.81576 8.6409 4.4657 8.51479C3.93256 8.32272 3.26001 8.08043 3.26001 7.2732C3.26001 6.41558 3.91572 5.90198 4.90175 5.90198C5.30488 5.90198 5.70318 5.96496 6.10631 6.12487L6.10631 7.2635C5.73715 7.06485 5.27087 6.95342 4.90175 6.95342Z" fill="rgb(100,97,252)" fill-rule="evenodd" />
</svg>
