<svg viewBox="0 0 24 24" xmlns="http://www.w3.org/2000/svg" xmlns:xlink="http://www.w3.org/1999/xlink" width="24.000000" height="24.000000" fill="none">
	<rect id="trash-outline" width="24.000000" height="24.000000" x="0.000000" y="0.000000" fill="currentColor" fill-opacity="0" />
	<g id="Layer 2">
		<g id="trash">
			<path id="Vector" d="M24 0L0 0L0 24L24 24L24 0Z" opacity="0" fill="currentColor" fill-rule="evenodd" />
			<path id="Vector" d="M21 6.00001L16 6.00001L16 4.33001C15.9765 3.68982 15.7002 3.08506 15.2316 2.6483C14.7629 2.21153 14.1402 1.9784 13.5 2.00001L10.5 2.00001C9.85975 1.9784 9.23706 2.21153 8.76843 2.6483C8.2998 3.08506 8.02346 3.68982 8 4.33001L8 6.00001L3 6.00001C2.73478 6.00001 2.48043 6.10536 2.29289 6.2929C2.10536 6.48043 2 6.73479 2 7.00001C2 7.26522 2.10536 7.51958 2.29289 7.70711C2.48043 7.89465 2.73478 8.00001 3 8.00001L4 8.00001L4 19C4 19.7957 4.31607 20.5587 4.87868 21.1213C5.44129 21.6839 6.20435 22 7 22L17 22C17.7957 22 18.5587 21.6839 19.1213 21.1213C19.6839 20.5587 20 19.7957 20 19L20 8.00001L21 8.00001C21.2652 8.00001 21.5196 7.89465 21.7071 7.70711C21.8946 7.51958 22 7.26522 22 7.00001C22 6.73479 21.8946 6.48043 21.7071 6.2929C21.5196 6.10536 21.2652 6.00001 21 6.00001ZM10 4.33001C10 4.17 10.21 4.00001 10.5 4.00001L13.5 4.00001C13.79 4.00001 14 4.17 14 4.33001L14 6.00001L10 6.00001L10 4.33001ZM18 19C18 19.2652 17.8946 19.5196 17.7071 19.7071C17.5196 19.8946 17.2652 20 17 20L7 20C6.73478 20 6.48043 19.8946 6.29289 19.7071C6.10536 19.5196 6 19.2652 6 19L6 8.00001L18 8.00001L18 19Z" fill="currentColor" fill-rule="nonzero" />
		</g>
	</g>
</svg>
